<svg width="512" height="512" viewBox="0 0 512 512" fill="none" xmlns="http://www.w3.org/2000/svg">
<g clip-path="url(#clip0_20_277)">
<path d="M501.916 325.364L330.967 375.202C330.39 375.37 329.857 375.665 329.409 376.065C328.96 376.464 328.606 376.959 328.372 377.513C328.139 378.067 328.031 378.666 328.058 379.266C328.085 379.866 328.246 380.453 328.528 380.984L346.465 414.707C346.998 415.708 347.132 416.873 346.841 417.969C346.55 419.065 345.856 420.01 344.897 420.615L218.489 500.426C216.56 501.644 217.816 504.626 220.035 504.097L448.309 449.674C451.026 449.026 452.284 445.886 450.767 443.542L425.282 404.166C424.7 403.267 424.459 402.189 424.601 401.128C424.743 400.066 425.26 399.09 426.058 398.376L503.827 328.808C505.429 327.374 503.979 324.763 501.916 325.364Z" fill="#FFD15B"/>
<path d="M503.826 328.808C505.428 327.374 503.979 324.763 501.915 325.364L466.017 335.83L396.098 398.376C395.3 399.09 394.783 400.066 394.641 401.128C394.498 402.189 394.74 403.267 395.322 404.166L420.807 443.542C422.324 445.886 421.066 449.025 418.35 449.674L226.384 495.441L218.488 500.426C216.559 501.644 217.815 504.626 220.034 504.097L448.308 449.674C451.025 449.026 452.283 445.886 450.766 443.542L425.281 404.166C424.699 403.267 424.458 402.189 424.6 401.128C424.742 400.066 425.259 399.09 426.057 398.376L503.826 328.808Z" fill="#FDB441"/>
<path d="M396.425 7.84119H210.328C208.444 7.84236 206.614 8.46919 205.125 9.62326C203.635 10.7773 202.572 12.3933 202.1 14.2174L147.139 226.364C145.745 231.747 148.785 237.284 154.069 238.986L238.678 266.229C240.031 266.667 241.161 267.612 241.83 268.867C242.499 270.122 242.654 271.587 242.263 272.954L177.865 498.454C176.547 503.069 182.444 506.223 185.538 502.555L426.228 217.161C430.535 212.054 428.186 204.197 421.787 202.302L319.801 172.109C314.984 170.683 312.861 165.039 315.542 160.783L403.614 20.9013C407.184 15.23 403.116 7.84119 396.425 7.84119Z" fill="#FFD15B"/>
<path d="M421.785 202.301L319.801 172.109C314.984 170.683 312.861 165.039 315.542 160.783L403.614 20.9013C407.184 15.23 403.116 7.84119 396.425 7.84119H366.466C373.158 7.84119 377.226 15.23 373.655 20.9013L285.583 160.783C282.904 165.039 285.026 170.683 289.842 172.109L391.826 202.302C398.226 204.197 400.574 212.054 396.267 217.161L187.502 464.7L177.863 498.454C176.545 503.069 182.442 506.223 185.536 502.555L426.226 217.161C430.533 212.054 428.184 204.197 421.785 202.301Z" fill="#FDB441"/>
<path d="M7.51264 197.836L32.9477 374.076C33.0336 374.671 33.2509 375.239 33.584 375.74C33.917 376.24 34.3573 376.66 34.8729 376.968C35.3885 377.277 35.9665 377.467 36.5647 377.524C37.163 377.582 37.7664 377.505 38.3313 377.3L74.232 364.256C75.2979 363.869 76.4707 363.899 77.5153 364.34C78.5599 364.781 79.399 365.601 79.8643 366.636L141.208 502.964C142.145 505.045 145.272 504.219 145.06 501.947L123.102 268.304C122.84 265.523 119.907 263.839 117.375 265.013L74.8212 284.74C73.8494 285.19 72.7487 285.279 71.7175 284.989C70.6862 284.7 69.7923 284.051 69.1969 283.161L11.1906 196.425C9.99423 194.639 7.20606 195.708 7.51264 197.836Z" fill="#FFD15B"/>
<path d="M14.4861 246.152L39.2371 283.161C40.4674 285.001 43.669 288.455 52.404 286.857L69.1959 283.161L11.1896 196.425C9.99423 194.639 7.20606 195.708 7.51264 197.836L14.4861 246.152ZM145.059 501.947L123.101 268.304C122.839 265.523 119.906 263.839 117.374 265.013L93.8581 275.915L124.134 465.018L141.208 502.965C142.144 505.045 145.272 504.219 145.059 501.947ZM49.9054 366.635C49.4401 365.6 48.601 364.78 47.5564 364.339C46.5118 363.898 45.339 363.868 44.2732 364.255L32.1648 368.654L32.9467 374.075C33.0326 374.67 33.2499 375.238 33.583 375.739C33.916 376.239 34.3563 376.659 34.8719 376.967C35.3875 377.276 35.9655 377.466 36.5637 377.523C37.162 377.581 37.7655 377.504 38.3303 377.299L52.402 372.186L49.9054 366.635Z" fill="#FDB441"/>
<path d="M235.017 7.84119H210.327C208.443 7.84236 206.613 8.46919 205.124 9.62326C203.634 10.7773 202.571 12.3933 202.099 14.2174L147.138 226.364C145.744 231.747 148.784 237.284 154.068 238.986L238.677 266.229C240.03 266.667 241.16 267.612 241.829 268.867C242.498 270.122 242.653 271.587 242.262 272.954L177.864 498.454C176.546 503.069 182.443 506.223 185.537 502.555L426.227 217.161C430.534 212.054 428.185 204.197 421.786 202.302L319.801 172.109C314.984 170.683 312.861 165.039 315.542 160.783L403.614 20.9013C407.184 15.23 403.116 7.84119 396.425 7.84119H272.299M420.113 456.395L448.309 449.673C451.026 449.025 452.284 445.885 450.767 443.541L425.282 404.165C424.7 403.266 424.459 402.188 424.601 401.127C424.743 400.065 425.26 399.089 426.058 398.375L503.827 328.806C505.429 327.373 503.98 324.762 501.916 325.363L330.967 375.201C330.39 375.369 329.857 375.664 329.408 376.064C328.96 376.463 328.606 376.958 328.372 377.512C328.139 378.066 328.031 378.665 328.058 379.265C328.085 379.865 328.246 380.452 328.528 380.983L346.465 414.706C346.998 415.707 347.132 416.872 346.841 417.968C346.55 419.064 345.856 420.009 344.897 420.614L218.489 500.425C216.56 501.643 217.816 504.625 220.035 504.096L386.852 464.324M7.51264 197.836L32.9477 374.076C33.0336 374.671 33.2509 375.239 33.584 375.74C33.917 376.24 34.3573 376.66 34.8729 376.968C35.3885 377.277 35.9665 377.467 36.5647 377.524C37.163 377.582 37.7664 377.505 38.3313 377.3L74.232 364.256C75.2979 363.869 76.4707 363.899 77.5153 364.34C78.5599 364.781 79.399 365.601 79.8643 366.636L141.208 502.964C142.145 505.046 145.272 504.219 145.06 501.947L123.102 268.304C122.84 265.523 119.907 263.839 117.375 265.013L74.8212 284.74C73.8494 285.19 72.7487 285.279 71.7175 284.989C70.6862 284.7 69.7923 284.052 69.1969 283.161L11.1906 196.425C9.99423 194.639 7.20606 195.708 7.51264 197.836Z" stroke="black" stroke-width="14.9794" stroke-miterlimit="10" stroke-linecap="round" stroke-linejoin="round"/>
</g>
<defs>
<clipPath id="clip0_20_277">
<rect width="512" height="512" fill="white"/>
</clipPath>
</defs>
</svg>
