<svg width="512" height="512" viewBox="0 0 512 512" fill="none" xmlns="http://www.w3.org/2000/svg">
<g clip-path="url(#clip0_20_179)">
<path d="M120.766 426.022C183.228 426.022 233.862 349.902 233.862 256.003C233.862 162.104 183.228 85.984 120.766 85.984C58.3052 85.984 7.67041 162.104 7.67041 256.003C7.67041 349.902 58.3052 426.022 120.766 426.022Z" fill="#FFDAC9"/>
<path d="M133.267 383.844C56.3803 383.844 4.14627 272.718 24.6343 166.423C-23.0367 281.802 33.9903 426.019 120.766 426.019C172.283 426.019 215.748 374.231 229.4 303.399C209.449 351.686 173.859 383.844 133.267 383.844Z" fill="#CECECE"/>
<path d="M105.205 402.63C159.073 402.63 202.74 336.983 202.74 256.003C202.74 175.023 159.073 109.376 105.205 109.376C51.3383 109.376 7.67041 175.023 7.67041 256.003C7.67041 336.983 51.3383 402.63 105.205 402.63Z" fill="white"/>
<path d="M105.204 402.624C124.358 402.624 142.22 394.317 157.291 379.977C75.4884 406.59 5.61436 296.508 22.7424 177.687C-17.7756 273.913 28.0194 402.624 105.204 402.624Z" fill="#DBDBDB"/>
<path d="M85.4731 300.915C52.4331 319.991 11.5111 297.851 7.94105 261.083C3.66905 217.053 53.162 187.721 89.743 213.855C119.698 235.256 118.7 281.731 85.4731 300.915Z" fill="#656566"/>
<path d="M29.593 248.581C28.022 232.391 34.18 216.744 45.188 206.171C20.818 213.187 5.56 236.544 7.941 261.082C12.023 303.153 63.652 323.948 95.638 293.305C73.251 299.797 32.701 280.616 29.593 248.581Z" fill="#4F4F51"/>
<path d="M391.58 426.022C454.041 426.022 504.676 349.902 504.676 256.003C504.676 162.104 454.041 85.984 391.58 85.984C329.119 85.984 278.484 162.104 278.484 256.003C278.484 349.902 329.119 426.022 391.58 426.022Z" fill="#FFDAC9"/>
<path d="M404.076 383.844C327.189 383.844 274.955 272.718 295.443 166.423C247.772 281.802 304.799 426.019 391.575 426.019C443.092 426.019 486.557 374.231 500.209 303.399C480.258 351.686 444.667 383.844 404.076 383.844Z" fill="#CECECE"/>
<path d="M376.009 402.63C429.876 402.63 473.544 336.983 473.544 256.003C473.544 175.023 429.876 109.376 376.009 109.376C322.142 109.376 278.474 175.023 278.474 256.003C278.474 336.983 322.142 402.63 376.009 402.63Z" fill="white"/>
<path d="M376.012 402.624C395.166 402.624 413.028 394.317 428.098 379.977C345.606 406.815 276.552 295.602 293.549 177.687C252.441 275.319 299.629 402.624 376.012 402.624Z" fill="#DBDBDB"/>
<path d="M356.282 300.915C323.307 319.953 282.327 297.927 278.75 261.083C274.478 217.053 323.971 187.721 360.552 213.855C390.507 235.256 389.509 281.731 356.282 300.915Z" fill="#656566"/>
<path d="M300.402 248.581C298.831 232.391 304.989 216.744 315.997 206.171C291.627 213.187 276.369 236.544 278.75 261.082C282.839 303.224 334.52 323.891 366.447 293.305C344.06 299.797 303.51 280.616 300.402 248.581Z" fill="#4F4F51"/>
<path d="M34.3862 380.377C81.4762 451.171 159.546 451.437 206.814 380.377C256.568 305.576 251.602 183.651 196.648 118.004C195.358 116.522 193.539 115.605 191.58 115.451C189.622 115.296 187.68 115.916 186.174 117.177C184.667 118.438 183.716 120.239 183.523 122.195C183.331 124.15 183.913 126.103 185.145 127.633C211.23 158.794 226.191 205.582 226.191 256.001C226.191 370.998 149.384 451.701 79.2132 405.512C147.72 430.545 210.068 354.285 210.068 256C210.068 158.028 147.9 81.39 79.2142 106.489C104.865 89.605 134.308 88.957 160.593 105.667C161.424 106.195 162.352 106.555 163.322 106.725C164.292 106.895 165.286 106.873 166.247 106.659C167.209 106.444 168.119 106.043 168.925 105.477C169.731 104.912 170.418 104.193 170.947 103.362C171.475 102.53 171.835 101.603 172.005 100.633C172.175 99.6629 172.152 98.6687 171.938 97.7073C171.724 96.7459 171.323 95.836 170.757 95.0297C170.191 94.2234 169.472 93.5365 168.641 93.008C90.5232 43.339 -2.1408 126.219 0.0382023 259.802C0.679202 305.259 12.8162 347.949 34.3862 380.377ZM105.037 116.875C128.496 116.875 150.77 130.939 167.756 156.474C226.19 244.319 184.277 395.123 105.037 395.123C59.4462 395.123 29.4442 345.257 19.6382 300.099C50.2022 327.642 98.2522 315.865 113.395 280.59C113.409 280.314 128.441 251.758 108.255 222.346C88.0802 192.989 46.3172 187.883 19.6352 211.912C29.5382 166.292 59.7102 116.875 105.037 116.875ZM22.7062 231.028C22.8112 230.94 36.5912 209.402 62.6372 211.77C91.5372 213.834 110.459 242.728 101.485 269.932C91.8652 297.327 61.7752 307.604 38.4462 295.119C15.2582 282.714 7.8642 252.825 22.7062 231.028ZM305.195 131.622C259.395 200.476 259.316 311.402 305.195 380.376C341.312 434.672 392.778 444.75 433.644 422.414C434.509 421.942 435.271 421.304 435.889 420.536C436.507 419.769 436.967 418.888 437.245 417.943C437.522 416.997 437.61 416.007 437.504 415.027C437.398 414.048 437.101 413.099 436.628 412.235C436.156 411.371 435.518 410.608 434.751 409.99C433.984 409.372 433.102 408.911 432.157 408.634C431.212 408.357 430.221 408.269 429.242 408.375C428.262 408.481 427.313 408.778 426.449 409.251C401.085 423.114 373.682 421.084 350.02 405.509C418.526 430.544 480.875 354.283 480.875 255.998C480.875 157.878 418.565 81.44 350.021 106.487C420.365 60.187 497 141.176 497 255.999C497 308.626 480.178 358.295 452.001 388.867C451.334 389.591 450.815 390.44 450.475 391.365C450.136 392.289 449.982 393.272 450.022 394.256C450.062 395.24 450.295 396.207 450.709 397.101C451.123 397.995 451.709 398.799 452.433 399.466C453.157 400.134 454.006 400.652 454.931 400.992C455.855 401.332 456.838 401.486 457.822 401.446C458.806 401.406 459.773 401.172 460.667 400.758C461.561 400.344 462.365 399.759 463.032 399.034C522.014 335.04 528.739 208.471 477.623 131.623C430.533 60.831 352.463 60.563 305.195 131.622ZM465.875 256C465.875 293.703 456.177 329.048 438.564 355.525C421.579 381.06 399.304 395.124 375.845 395.124C330.167 395.124 300.212 345.109 290.439 300.068C328.28 334.243 389.586 307.608 389.586 256C389.586 254.011 388.796 252.103 387.39 250.697C385.983 249.29 384.075 248.5 382.086 248.5C380.097 248.5 378.189 249.29 376.783 250.697C375.376 252.103 374.586 254.011 374.586 256C374.586 280.473 354.675 300.384 330.201 300.384C300.5 300.384 277.35 270.967 288.894 239.798C299.697 212.395 327.556 211.732 327.657 211.693C341.466 210.915 354.817 216.547 363.946 227.239C365.249 228.713 367.079 229.616 369.041 229.753C371.004 229.891 372.941 229.252 374.438 227.975C375.934 226.698 376.868 224.884 377.04 222.924C377.211 220.965 376.606 219.016 375.355 217.498C353.666 192.09 315.332 189.44 290.433 211.969C294.927 191.235 302.618 172.275 313.128 156.474C370.907 69.609 465.875 135.4 465.875 256Z" fill="black"/>
</g>
<defs>
<clipPath id="clip0_20_179">
<rect width="512" height="512" fill="white"/>
</clipPath>
</defs>
</svg>
