<svg width="512" height="512" viewBox="0 0 512 512" fill="none" xmlns="http://www.w3.org/2000/svg">
<g clip-path="url(#clip0_14_31)">
<mask id="mask0_14_31" style="mask-type:luminance" maskUnits="userSpaceOnUse" x="0" y="0" width="512" height="512">
<path d="M0 0.00146484H511.999V512H0V0.00146484Z" fill="white"/>
</mask>
<g mask="url(#mask0_14_31)">
<path d="M41.5699 305.856L305.714 41.6203C351.188 -3.87153 424.954 -3.87153 470.428 41.6203C515.855 87.0622 515.855 160.705 470.428 206.147L206.284 470.382C160.81 515.874 87.0448 515.874 41.5699 470.382C-3.85696 424.94 -3.85696 351.297 41.5699 305.856Z" fill="#FFDAC9"/>
<path d="M470.429 41.6193C443.868 15.0504 407.659 4.00745 373.072 8.47343C397.704 11.6544 421.514 22.6974 440.429 41.6193C485.856 87.0612 485.856 160.704 440.429 206.146L176.284 470.382C157.369 489.304 133.56 500.347 108.928 503.527C143.516 507.994 179.724 496.951 206.284 470.382L470.429 206.146C515.855 160.704 515.855 87.0612 470.429 41.6193Z" fill="#FFD0BA"/>
<path d="M148.776 255.709L255.674 148.772C267.946 136.496 287.855 136.496 300.127 148.772L363.223 211.891C375.483 224.155 375.483 244.029 363.223 256.293L256.324 363.229C244.051 375.505 224.144 375.505 211.871 363.229L148.776 300.111C136.516 287.847 136.516 267.973 148.776 255.709Z" fill="#FFC2A6"/>
<path d="M123.928 512C90.8087 512 59.6768 499.103 36.2659 475.685C13.3459 452.756 0.470979 422.282 0.0149807 389.879C-0.440018 357.543 11.5009 326.785 33.6379 303.271C40.2849 296.21 51.2078 306.491 44.5599 313.552C25.1069 334.216 14.6139 361.247 15.0139 389.668C15.4149 418.146 26.7299 444.928 46.8748 465.079C67.4518 485.664 94.8167 497 123.928 497C153.039 497 180.403 485.664 200.98 465.079L465.124 200.844C507.546 158.407 507.546 89.3582 465.125 46.9223C444.548 26.3374 417.183 15.0014 388.072 15.0014C358.96 15.0014 331.595 26.3374 311.019 46.9223L72.3778 285.647C65.5218 292.505 54.9138 281.899 61.7688 275.041L300.409 36.3164C323.82 12.8984 354.952 0.00146484 388.072 0.00146484C421.191 0.00146484 452.323 12.8984 475.734 36.3164C523.999 84.6012 523.999 163.165 475.734 211.449L211.589 475.685C188.178 499.103 157.047 512 123.928 512Z" fill="#060606"/>
<path d="M234.098 379.936C223.697 379.936 213.919 375.885 206.567 368.53L143.472 305.414C128.312 290.247 128.312 265.571 143.472 250.406L250.37 143.469C265.376 128.458 290.426 128.458 305.432 143.47L368.528 206.587C383.688 221.754 383.688 246.43 368.528 261.595L361.132 268.994C354.277 275.854 343.668 265.249 350.523 258.389L357.919 250.991C367.235 241.672 367.235 226.511 357.919 217.193L294.824 154.075C285.678 144.925 270.144 144.903 260.979 154.075L154.079 261.011C144.766 270.329 144.766 285.49 154.079 294.808L217.176 357.925C226.321 367.076 241.855 367.096 251.02 357.925L323.758 285.163C330.615 278.303 341.222 288.909 334.368 295.768L261.629 368.531C254.276 375.885 244.499 379.936 234.098 379.936Z" fill="#060606"/>
<path d="M404.039 181.801C413.691 181.801 413.707 166.801 404.039 166.801C394.388 166.801 394.371 181.801 404.039 181.801Z" fill="#060606"/>
<path d="M370.855 148.605C380.506 148.605 380.523 133.605 370.855 133.605C361.203 133.605 361.187 148.605 370.855 148.605Z" fill="#060606"/>
<path d="M337.669 115.411C347.321 115.411 347.337 100.411 337.669 100.411C328.018 100.411 328.002 115.411 337.669 115.411Z" fill="#060606"/>
<path d="M433.913 151.916C443.565 151.916 443.581 136.916 433.913 136.916C424.262 136.916 424.245 151.916 433.913 151.916Z" fill="#060606"/>
<path d="M400.729 118.721C410.38 118.721 410.397 103.721 400.729 103.721C391.077 103.721 391.061 118.721 400.729 118.721Z" fill="#060606"/>
<path d="M367.545 85.5253C377.197 85.5253 377.213 70.5253 367.545 70.5253C357.894 70.5253 357.878 85.5253 367.545 85.5253Z" fill="#060606"/>
<path d="M144.454 441.476C154.106 441.476 154.122 426.476 144.454 426.476C134.802 426.476 134.787 441.476 144.454 441.476Z" fill="#060606"/>
<path d="M111.27 408.28C120.922 408.28 120.938 393.28 111.27 393.28C101.619 393.28 101.603 408.28 111.27 408.28Z" fill="#060606"/>
<path d="M78.0858 375.085C87.7368 375.085 87.7528 360.085 78.0858 360.085C68.4338 360.085 68.4178 375.085 78.0858 375.085Z" fill="#060606"/>
<path d="M174.328 411.59C183.98 411.59 183.996 396.59 174.328 396.59C164.676 396.59 164.661 411.59 174.328 411.59Z" fill="#060606"/>
<path d="M141.144 378.395C150.795 378.395 150.811 363.395 141.144 363.395C131.493 363.395 131.477 378.395 141.144 378.395Z" fill="#060606"/>
<path d="M107.96 345.2C117.611 345.2 117.627 330.201 107.96 330.201C98.3077 330.201 98.2917 345.2 107.96 345.2Z" fill="#060606"/>
</g>
</g>
<defs>
<clipPath id="clip0_14_31">
<rect width="512" height="512" fill="white"/>
</clipPath>
</defs>
</svg>
