<svg width="512" height="512" viewBox="0 0 512 512" fill="none" xmlns="http://www.w3.org/2000/svg">
<path d="M504.086 178.647C498.868 109.794 442.609 54.351 373.693 50.045C330.464 47.344 291.14 64.311 263.794 92.848C259.506 97.323 252.494 97.323 248.206 92.848C220.859 64.311 181.536 47.344 138.307 50.045C69.39 54.351 13.132 109.793 7.91398 178.647C4.38998 225.15 23.639 267.303 55.671 295.122H55.668L242.114 457.048C250.079 463.965 261.921 463.965 269.886 457.048L456.332 295.122H456.329C488.361 267.303 507.61 225.15 504.086 178.647Z" fill="#FE646F"/>
<path d="M504.086 178.647C501.128 139.609 481.762 104.883 452.985 81.343C470.545 102.811 481.88 129.53 484.086 158.647C487.61 205.151 468.361 247.303 436.329 275.122H436.332L249.886 437.048C241.921 443.965 230.079 443.965 222.115 437.048L39.199 278.188C44.2047 284.285 49.7148 289.949 55.671 295.121H55.668L242.114 457.047C250.079 463.964 261.921 463.964 269.885 457.047L456.331 295.121H456.328C488.361 267.303 507.61 225.15 504.086 178.647Z" fill="#FD4755"/>
<path d="M341.188 405.813L213.961 317.469C209.868 314.627 204.816 313.562 199.911 314.443C186.23 316.901 171.641 314.721 158.661 307.227L73.205 257.89C66.095 253.785 63.131 244.789 66.897 237.494C70.918 229.705 80.574 226.933 88.078 231.266L62.042 216.234C54.932 212.129 51.969 203.133 55.735 195.838C59.756 188.049 69.412 185.278 76.916 189.61L63.712 181.986C56.208 177.653 53.78 167.905 58.515 160.529C62.95 153.62 72.223 151.688 79.333 155.793L92.164 163.201C84.66 158.868 82.232 149.12 86.967 141.743C91.402 134.834 100.674 132.902 107.784 137.007L196.306 188.115L191.298 169.425C187.79 156.332 195.56 142.875 208.652 139.367C215.894 137.427 223.338 141.724 225.278 148.966L241.496 209.491L246.547 231.737C247.156 234.42 248.35 236.936 250.043 239.105C251.736 241.274 253.887 243.043 256.342 244.285L395.511 314.718C426.876 330.592 434.472 371.993 410.786 397.967C392.832 417.656 363.075 421.011 341.188 405.813Z" fill="#FFDAC9"/>
<path d="M395.512 314.718L384.64 309.216C406.334 328.219 409.357 362.41 388.787 384.968C374.089 401.086 351.482 406.257 331.757 399.265L341.188 405.814C363.075 421.012 392.832 417.658 410.787 397.969C434.473 371.993 426.876 330.592 395.512 314.718ZM256.343 244.285C253.888 243.042 251.738 241.274 250.044 239.105C248.351 236.936 247.158 234.42 246.548 231.737L245.477 227.021L125.186 287.9L158.661 307.226C166.401 311.695 174.712 314.273 183.062 315.106L287.53 260.067L256.343 244.285Z" fill="#FFC2A6"/>
<path d="M170.812 405.813L298.039 317.469C302.132 314.627 307.184 313.562 312.089 314.443C325.77 316.901 340.359 314.721 353.339 307.227L438.794 257.89C445.904 253.785 448.868 244.789 445.102 237.494C441.081 229.705 431.425 226.933 423.921 231.266L449.957 216.234C457.067 212.129 460.03 203.133 456.264 195.838C452.243 188.049 442.587 185.278 435.083 189.61L448.287 181.986C455.791 177.653 458.219 167.905 453.484 160.529C449.049 153.62 439.776 151.688 432.666 155.793L419.835 163.201C427.339 158.868 429.767 149.12 425.032 141.743C420.597 134.834 411.325 132.902 404.215 137.007L315.693 188.115L320.701 169.425C324.209 156.332 316.439 142.875 303.347 139.367C296.105 137.427 288.661 141.724 286.721 148.966L270.503 209.491L265.452 231.737C264.843 234.42 263.649 236.936 261.956 239.105C260.263 241.274 258.112 243.043 255.657 244.285L116.488 314.718C85.123 330.592 77.527 371.993 101.213 397.967C119.168 417.656 148.925 421.011 170.812 405.813Z" fill="#FFDAC9"/>
<path d="M297.216 287.819C292.312 286.938 287.259 288.003 283.166 290.845L155.939 379.189C134.93 393.777 106.669 391.271 88.557 373.634C90.47 382.351 94.636 390.754 101.214 397.968C119.168 417.657 148.926 421.011 170.813 405.813L298.04 317.469C302.133 314.627 307.185 313.562 312.09 314.443C325.771 316.901 340.36 314.721 353.34 307.227L438.795 257.89C445.905 253.785 448.868 244.789 445.103 237.494C441.082 229.705 431.426 226.933 423.922 231.266L338.467 280.603C325.486 288.097 310.896 290.277 297.216 287.819Z" fill="#FFC2A6"/>
<path d="M116.61 247.738L88.079 231.265M131.541 221.146L76.917 189.609M92.164 163.201L147.105 194.92M395.39 247.738L423.921 231.265M380.459 221.146L435.083 189.609M419.836 163.201L364.895 194.92M360.903 162.014L315.693 188.116L320.701 169.426C324.209 156.333 316.439 142.876 303.347 139.368C296.105 137.428 288.661 141.725 286.721 148.967L270.503 209.492L265.452 231.738C264.843 234.421 263.649 236.937 261.956 239.106C260.263 241.275 258.112 243.044 255.657 244.286L116.488 314.719C85.123 330.593 77.527 371.994 101.213 397.968C119.167 417.657 148.925 421.011 170.812 405.813L298.039 317.469C302.132 314.627 307.184 313.562 312.089 314.443C325.77 316.901 340.359 314.721 353.339 307.227L438.794 257.89C445.904 253.785 448.868 244.789 445.102 237.494C441.081 229.705 431.425 226.933 423.921 231.266L449.957 216.234C457.067 212.129 460.03 203.133 456.264 195.838C452.243 188.049 442.587 185.278 435.083 189.61L448.287 181.986C455.791 177.653 458.219 167.905 453.484 160.529C449.049 153.62 439.776 151.688 432.666 155.793L419.835 163.201C427.339 158.868 429.767 149.12 425.032 141.743C420.597 134.834 411.325 132.902 404.215 137.007L392.109 143.996" stroke="black" stroke-width="15" stroke-miterlimit="10" stroke-linecap="round" stroke-linejoin="round"/>
<path d="M255.657 244.285C255.772 244.227 255.886 244.167 256 244.107C253.629 242.845 251.557 241.087 249.926 238.952C248.295 236.818 247.143 234.357 246.548 231.737L241.497 209.491L225.279 148.966C223.339 141.724 215.895 137.426 208.653 139.367C195.56 142.875 187.791 156.333 191.299 169.425L196.307 188.115L107.785 137.007C100.675 132.902 91.402 134.834 86.967 141.743C82.232 149.12 84.66 158.868 92.164 163.201L79.333 155.793C72.223 151.688 62.95 153.62 58.515 160.529C53.78 167.905 56.208 177.654 63.712 181.987L76.916 189.611C69.412 185.278 59.756 188.05 55.735 195.839C51.969 203.134 54.932 212.13 62.042 216.235L88.078 231.267C80.574 226.934 70.917 229.706 66.897 237.495C63.131 244.79 66.095 253.787 73.205 257.891L145.875 299.847M308.94 383.421L341.188 405.813C363.075 421.011 392.832 417.657 410.787 397.968C434.473 371.993 426.877 330.592 395.512 314.719L366.125 299.846M256 346.66L280.255 363.502" stroke="black" stroke-width="15" stroke-miterlimit="10" stroke-linecap="round" stroke-linejoin="round"/>
<path d="M66.049 75.946C33.418 99.391 11.107 136.507 7.91303 178.646C4.39003 225.15 23.639 267.303 55.671 295.122H55.668L97.221 331.211M414.779 331.21L456.332 295.121H456.329C488.361 267.302 507.611 225.15 504.086 178.646C498.868 109.793 442.61 54.35 373.693 50.045C330.464 47.344 291.14 64.311 263.794 92.848C259.506 97.323 252.494 97.323 248.206 92.848C220.859 64.311 181.536 47.344 138.307 50.045C124.208 50.9255 110.329 53.9732 97.159 59.081M177.652 401.063L242.114 457.048C250.079 463.965 261.921 463.965 269.885 457.048L334.347 401.063" stroke="black" stroke-width="15" stroke-miterlimit="10" stroke-linecap="round" stroke-linejoin="round"/>
</svg>
