<svg width="512" height="512" viewBox="0 0 512 512" fill="none" xmlns="http://www.w3.org/2000/svg">
<g clip-path="url(#clip0_20_211)">
<path d="M504.5 256C504.5 344.413 458.328 422.042 388.781 466.089C350.37 490.416 256 495.511 256 495.511C256 495.511 187.879 487.059 130.873 446.32C71.6138 403.97 23.3828 327.99 23.3828 258.039C23.3828 178.994 44.4058 106.531 101.926 61.017C144.277 27.506 197.802 7.5 256 7.5C393.243 7.5 504.5 118.757 504.5 256Z" fill="#FEC55A"/>
<path d="M452.747 161.625C428.46 137.742 389.411 138.069 365.527 162.355C341.644 186.642 367.36 246.787 367.36 246.787C367.36 246.787 429.593 273.131 453.476 248.844C477.359 224.557 477.034 185.508 452.747 161.625Z" fill="#FCF7ED"/>
<path d="M456.802 245.186C455.743 246.449 454.636 247.67 453.482 248.846C429.592 273.136 390.542 273.456 366.262 249.576C341.972 225.696 341.642 186.646 365.532 162.356C368.242 159.596 371.152 157.146 374.212 155.016C353.732 179.426 355.162 215.866 378.262 238.576C399.782 259.746 432.912 261.896 456.802 245.186Z" fill="#F7E5C1"/>
<path d="M389.876 188.109C393.206 184.723 394.8 180.288 394.691 175.887C394.657 174.538 395.454 173.299 396.739 172.886C409.188 168.881 423.469 172.096 432.998 182.601C442.966 193.591 444.522 209.659 437.739 222.253C436.395 224.748 428.403 227.723 428.403 227.723C428.403 227.723 402 240.333 388.138 226.702C378.497 217.221 373.798 214.24 377.679 202.191C378.091 200.913 379.326 200.124 380.668 200.158C383.91 200.24 383.943 192.363 386.785 190.589C387.91 189.887 388.947 189.055 389.876 188.109Z" fill="#8C818F"/>
<path d="M438.452 220.836C436.981 223.921 435.049 226.764 432.722 229.266C419.412 243.626 396.972 244.066 383.112 230.436C373.472 220.956 370.572 207.206 374.452 195.156C374.862 193.876 376.102 193.096 377.442 193.126C380.682 193.206 383.942 192.366 386.782 190.586C386.732 199.596 390.182 208.616 397.112 215.436C408.392 226.526 425.362 228.306 438.452 220.836Z" fill="#766D78"/>
<path d="M285.345 161.625C261.058 137.742 222.009 138.069 198.125 162.355C174.241 186.641 199.958 246.787 199.958 246.787C199.958 246.787 262.191 273.131 286.074 248.844C309.959 224.558 309.632 185.508 285.345 161.625Z" fill="#FCF7ED"/>
<path d="M289.4 245.186C288.342 246.449 287.234 247.67 286.08 248.846C262.19 273.136 223.14 273.456 198.86 249.576C174.57 225.696 174.24 186.646 198.13 162.356C200.84 159.596 203.75 157.146 206.81 155.016C186.33 179.426 187.76 215.866 210.86 238.576C232.38 259.746 265.51 261.896 289.4 245.186Z" fill="#F7E5C1"/>
<path d="M424.25 438.88C379.98 479.62 320.9 504.5 256 504.5C118.76 504.5 7.5 393.24 7.5 256C7.5 165.68 55.68 86.62 127.75 43.12C78.41 88.54 47.5 153.66 47.5 226C47.5 363.24 158.76 474.5 296 474.5C342.92 474.5 386.81 461.49 424.25 438.88Z" fill="#E5AF4A"/>
<path d="M231.151 87.681L302.916 129.432C310.67 133.943 313.299 143.886 308.788 151.641C304.6 158.839 290.674 155.836 283.221 152.589L216.782 123.675C206.085 119.03 196.519 108.22 201.164 97.522C205.809 86.825 218.247 81.918 228.944 86.564C229.671 86.881 230.477 87.296 231.151 87.681Z" fill="#B36D3C"/>
<path d="M308.789 151.64C304.593 158.839 295.728 161.613 288.271 158.371L212.116 125.304C201.499 120.698 196.597 108.396 201.065 97.753C203.964 101.948 208.236 105.575 213.518 107.938L305.884 149.205C307.024 149.717 308.204 150.136 309.412 150.458C309.216 150.861 309.012 151.257 308.789 151.64Z" fill="#995E34"/>
<path d="M421.239 87.681L349.474 129.432C341.72 133.943 339.091 143.886 343.602 151.641C347.79 158.839 361.716 155.836 369.169 152.589L435.608 123.675C446.305 119.03 455.871 108.22 451.226 97.522C446.581 86.825 434.143 81.918 423.446 86.564C422.718 86.881 421.912 87.296 421.239 87.681Z" fill="#B36D3C"/>
<path d="M343.601 151.64C347.797 158.839 356.662 161.613 364.119 158.371L440.274 125.304C450.891 120.698 455.793 108.396 451.325 97.753C448.426 101.948 444.154 105.575 438.872 107.938L346.506 149.205C345.366 149.717 344.186 150.136 342.978 150.458C343.173 150.861 343.378 151.257 343.601 151.64Z" fill="#995E34"/>
<path d="M451.039 420.787L192.596 418.585C184.312 418.585 177.596 411.869 177.596 403.585L176.575 314.015C176.575 305.731 177.933 293.999 186.218 293.999H461.299C469.583 293.999 476.299 300.715 476.299 308.999V408.999C476.298 417.284 459.323 420.787 451.039 420.787Z" fill="#ED4A3E"/>
<path d="M476.3 409C476.3 417.28 469.58 424 461.3 424H186.22C177.936 424 171.22 417.284 171.22 409V309C171.22 300.72 177.93 294 186.22 294V399C186.22 404.523 190.697 409 196.22 409H476.3Z" fill="#D63322"/>
<path d="M222.474 188.109C225.804 184.723 227.398 180.288 227.289 175.887C227.255 174.538 228.052 173.299 229.337 172.886C241.786 168.881 256.067 172.096 265.596 182.601C275.564 193.591 277.12 209.659 270.337 222.253C268.993 224.748 261.001 227.723 261.001 227.723C261.001 227.723 234.598 240.333 220.736 226.702C211.095 217.221 206.396 214.24 210.277 202.191C210.689 200.913 211.924 200.124 213.266 200.158C216.508 200.24 216.541 192.363 219.383 190.589C220.508 189.887 221.545 189.055 222.474 188.109Z" fill="#8C818F"/>
<path d="M271.05 220.836C269.58 223.921 267.647 226.764 265.32 229.266C252.01 243.626 229.57 244.066 215.71 230.436C206.07 220.956 203.17 207.206 207.05 195.156C207.46 193.876 208.7 193.096 210.04 193.126C213.28 193.206 216.54 192.366 219.38 190.586C219.33 199.596 222.78 208.616 229.71 215.436C240.99 226.526 257.96 228.306 271.05 220.836Z" fill="#766D78"/>
<path d="M512 256C512 200.393 494.512 147.63 461.419 103.225C461.249 99.5918 460.398 96.0228 458.91 92.704C455.142 84.811 447.974 78.049 438.078 76.072C414.859 52.568 387.788 34.016 357.556 20.937C325.442 7.044 291.274 0 256 0C187.62 0 123.333 26.629 74.981 74.98C26.628 123.332 0 187.62 0 256C0 279.501 3.185 302.786 9.466 325.208C9.9073 326.783 10.8514 328.171 12.1544 329.16C13.4575 330.149 15.0481 330.686 16.684 330.687C17.8421 330.688 18.9847 330.42 20.0221 329.905C21.0596 329.391 21.9637 328.643 22.6637 327.72C23.3637 326.797 23.8404 325.725 24.0567 324.587C24.2729 323.45 24.2227 322.277 23.91 321.162C17.998 300.057 15 278.133 15 256C15 123.112 123.112 15 256 15C317.189 15 374.617 37.517 419.202 78.674C419.437 78.377 398.347 91.051 398.199 91.115C396.491 92.1338 395.257 93.7896 394.769 95.718C394.282 97.6465 394.58 99.6896 395.599 101.398C396.618 103.106 398.274 104.34 400.202 104.828C402.13 105.315 404.174 105.017 405.882 103.998C409.982 101.64 423.491 93.316 426.637 91.731C432.167 89.116 441.956 91.102 445.217 98.827C447.832 104.358 445.846 114.146 438.121 117.406L360.718 152.025C356.52 153.908 351.573 152.34 349.21 148.38C347.379 145.125 347.2 139.44 352.36 135.921L375.759 121.964C377.467 120.945 378.701 119.289 379.188 117.36C379.676 115.432 379.377 113.388 378.358 111.68C377.339 109.972 375.683 108.738 373.754 108.251C371.826 107.763 369.782 108.062 368.074 109.081L344.676 123.038C334.214 129.085 329.232 144.311 336.327 156.063C339.991 162.206 346.003 166.169 352.593 167.404C344.625 178.767 340.262 192.248 340.144 206.423C339.989 224.9 347.039 242.331 359.995 255.505C372.307 268.18 390.903 276.335 409.334 276.178C445.585 277 478.995 244.797 478.491 207.581C478.646 189.104 471.596 171.673 458.64 158.498C449.112 148.81 437.405 142.545 425.057 139.679L444.245 131.097C448.952 129.004 453.014 125.69 456.009 121.499C482.867 161.279 497 207.489 497 256C497 282.83 492.484 309.54 483.798 334.757V309C483.798 296.594 473.705 286.5 461.298 286.5H186.217C173.81 286.5 163.717 296.594 163.717 309V409C163.717 421.406 173.81 431.5 186.217 431.5H273.239C277.381 431.5 280.739 428.143 280.739 424C280.739 419.857 277.381 416.5 273.239 416.5H186.217C182.081 416.5 178.717 413.136 178.717 409V309C178.717 304.864 182.081 301.5 186.217 301.5H461.298C465.434 301.5 468.798 304.864 468.798 309V409C468.798 413.136 465.434 416.5 461.298 416.5H308.559C304.417 416.5 301.059 419.857 301.059 424C301.059 428.143 304.417 431.5 308.559 431.5H421.139C376.637 473.314 317.397 497 256 497C160.524 497 73.928 440.542 35.387 353.166C34.9945 352.257 34.4261 351.436 33.7144 350.748C33.0028 350.06 32.1621 349.52 31.2407 349.158C30.3194 348.797 29.3356 348.621 28.3461 348.642C27.3566 348.663 26.3809 348.879 25.4754 349.278C24.5698 349.678 23.7523 350.252 23.0699 350.969C22.3875 351.686 21.8537 352.531 21.4993 353.455C21.1449 354.379 20.9769 355.364 21.005 356.353C21.0331 357.343 21.2567 358.317 21.663 359.219C62.602 452.03 154.584 512 256 512C292.491 512 327.739 504.479 360.767 489.647C391.659 475.775 419.081 456.21 442.349 431.5H461.298C473.705 431.5 483.798 421.406 483.798 409V372.906C502.249 337.008 512 296.631 512 256ZM463.491 207.457C463.907 235.824 438.304 262.048 408.864 261.178C394.394 261.057 380.837 255.308 370.69 244.99C360.544 234.673 355.023 221.021 355.144 206.551C355.265 192.081 361.014 178.525 371.332 168.378C381.866 158.019 395.591 152.855 409.314 152.855C423.338 152.855 437.359 158.253 447.945 169.019C458.091 179.335 463.612 192.987 463.491 207.457Z" fill="black"/>
<path d="M286.689 364.053C284.7 364.053 282.792 364.843 281.386 366.25C279.979 367.656 279.189 369.564 279.189 371.553C279.189 373.529 279.97 375.426 281.361 376.83C282.753 378.233 284.642 379.031 286.618 379.049L283.396 394.548C283.169 395.64 283.188 396.769 283.452 397.852C283.716 398.936 284.219 399.947 284.923 400.812C285.627 401.676 286.515 402.373 287.523 402.852C288.53 403.33 289.632 403.577 290.747 403.576C292.47 403.573 294.14 402.978 295.475 401.89C296.811 400.802 297.732 399.287 298.082 397.6L301.938 379.052H311.985L308.764 394.547C308.537 395.639 308.556 396.768 308.82 397.851C309.084 398.935 309.587 399.946 310.291 400.811C310.995 401.675 311.883 402.372 312.891 402.85C313.898 403.329 315 403.576 316.115 403.575C317.838 403.572 319.508 402.977 320.843 401.889C322.179 400.801 323.1 399.286 323.45 397.599L327.306 379.051H330.428C334.57 379.051 337.928 375.694 337.928 371.551C337.928 367.408 334.57 364.051 330.428 364.051H330.424L332.61 353.536H335.705C337.679 353.516 339.566 352.719 340.956 351.317C342.346 349.916 343.128 348.022 343.131 346.048C343.134 344.074 342.358 342.178 340.973 340.772C339.587 339.366 337.702 338.563 335.728 338.537L338.864 323.45C339.269 321.503 338.883 319.474 337.792 317.811C336.702 316.148 334.995 314.986 333.047 314.581C331.1 314.177 329.072 314.562 327.408 315.653C325.745 316.744 324.583 318.45 324.177 320.397L320.407 338.536H310.36L313.496 323.45C313.875 321.513 313.475 319.504 312.383 317.86C311.291 316.215 309.594 315.068 307.661 314.666C305.729 314.264 303.715 314.641 302.058 315.713C300.401 316.786 299.234 318.469 298.809 320.397L295.039 338.536H291.965C289.997 338.562 288.118 339.36 286.733 340.759C285.349 342.158 284.569 344.045 284.564 346.013C284.558 347.982 285.326 349.873 286.703 351.28C288.079 352.687 289.953 353.497 291.921 353.534L289.735 364.051H286.689V364.053ZM307.242 353.538H317.289L315.103 364.053H305.056L307.242 353.538ZM196.695 372.223C195.566 381.284 198.712 389.898 205.553 396.479C209.869 400.648 217.176 404.026 224.317 403.541C234.343 403.04 243.22 397.124 248.629 391.334L256 399.915C257.3 401.411 259.139 402.333 261.116 402.477C263.092 402.622 265.046 401.978 266.549 400.687C268.053 399.395 268.984 397.561 269.14 395.586C269.295 393.61 268.662 391.653 267.379 390.142L258.15 379.397C263.05 372.715 266.367 367.42 266.571 367.093C267.105 366.257 267.468 365.324 267.638 364.348C267.809 363.371 267.785 362.37 267.566 361.403C267.348 360.436 266.94 359.522 266.366 358.713C265.792 357.905 265.063 357.218 264.222 356.693C263.381 356.168 262.444 355.815 261.465 355.655C260.487 355.494 259.487 355.529 258.522 355.758C257.557 355.986 256.647 356.404 255.845 356.986C255.042 357.569 254.363 358.304 253.847 359.151C253.808 359.214 251.564 362.795 248.095 367.69L235.293 352.787C236.715 351.812 238.089 350.77 239.411 349.664C247.711 342.67 250.022 332.887 245.299 324.741C240.211 315.966 228.718 312.146 218.562 315.864C216.917 316.467 215.51 317.165 214.259 318C209.766 320.996 206.734 325.909 205.939 331.479C205.16 336.94 206.655 342.381 210.092 346.467L212.34 349.084C203.718 354.104 197.878 362.732 196.695 372.223ZM220.789 333.597C221.09 330.583 223.958 329.428 226.592 329.433C229.175 329.433 231.397 330.668 232.322 332.264C233.531 334.349 231.587 336.638 229.744 338.192C228.554 339.195 227.122 340.227 225.449 341.325L221.522 336.753C220.879 335.988 220.612 334.838 220.789 333.597ZM211.581 374.078C212.194 369.159 215.354 364.63 220.034 361.962L222.294 360.673L238.76 379.844C235.626 383.753 229.138 388.175 223.569 388.559C220.623 388.707 218.128 387.761 215.953 385.668C211.66 381.539 211.206 377.086 211.581 374.078ZM420.926 314.591C419.092 313.822 417.027 313.813 415.186 314.565C413.345 315.318 411.878 316.771 411.108 318.605L380.299 392.015C379.529 393.849 379.52 395.914 380.272 397.755C381.025 399.596 382.478 401.063 384.312 401.833C387.032 402.889 391.845 402.44 394.13 397.819L424.939 324.409C425.709 322.575 425.719 320.51 424.966 318.669C424.213 316.828 422.76 315.361 420.926 314.591ZM374.317 310.585C362.675 310.585 353.204 321.046 353.204 333.904C353.204 346.761 362.675 357.222 374.317 357.222C385.959 357.222 395.43 346.761 395.43 333.904C395.43 321.046 385.959 310.585 374.317 310.585ZM374.317 342.223C371.004 342.223 368.204 338.413 368.204 333.905C368.204 329.395 371.003 325.586 374.317 325.586C377.631 325.586 380.43 329.396 380.43 333.905C380.43 338.413 377.631 342.223 374.317 342.223ZM408.813 384.096C408.813 396.954 418.284 407.415 429.926 407.415C441.568 407.415 451.039 396.954 451.039 384.096C451.039 371.239 441.568 360.778 429.926 360.778C418.284 360.777 408.813 371.238 408.813 384.096ZM429.926 375.777C433.239 375.777 436.039 379.587 436.039 384.095C436.039 388.605 433.24 392.414 429.926 392.414C426.612 392.414 423.813 388.604 423.813 384.095C423.813 379.587 426.612 375.777 429.926 375.777ZM393.858 168.128C392.283 168.758 390.968 169.904 390.128 171.378C389.288 172.852 388.972 174.568 389.233 176.244C389.704 179.274 388.732 182.235 386.566 184.365C384.446 186.449 381.529 187.381 378.559 186.92C376.883 186.66 375.169 186.976 373.696 187.816C372.222 188.656 371.077 189.971 370.447 191.545C364.24 207.06 367.795 224.778 379.505 236.686C386.692 244.212 398.458 249.326 409.51 249.258C431.071 249.76 451.898 230.41 451.568 207.541C451.662 196.304 447.375 185.703 439.496 177.691C433.686 171.765 426.25 167.694 418.127 165.992C410.004 164.29 401.559 165.033 393.858 168.128ZM428.8 188.209C433.87 193.364 436.628 200.185 436.568 207.415C436.716 220.848 424.626 234.499 409.506 234.258C403.484 234.358 395.334 231.434 390.2 226.168C387.099 223.013 384.819 219.147 383.557 214.906C382.296 210.666 382.093 206.182 382.965 201.845C388.239 201.195 393.241 198.839 397.083 195.061C401.004 191.192 403.5 186.11 404.164 180.642C408.576 179.751 413.14 179.977 417.443 181.298C421.745 182.62 425.649 184.995 428.8 188.209ZM217.126 184.254C214.996 186.421 212.039 187.393 209.005 186.922C207.329 186.662 205.613 186.977 204.14 187.817C202.666 188.658 201.52 189.973 200.89 191.548C197.795 199.248 197.052 207.693 198.754 215.816C200.456 223.939 204.527 231.375 210.453 237.185C218.632 245.228 229.292 249.239 239.947 249.239C250.838 249.238 261.724 245.047 269.946 236.686C277.825 228.674 282.112 218.074 282.018 206.836C281.924 195.6 277.459 185.072 269.448 177.193C257.542 165.484 239.822 161.928 224.307 168.134C222.732 168.764 221.418 169.909 220.578 171.383C219.737 172.856 219.421 174.571 219.681 176.247C220.142 179.218 219.21 182.135 217.126 184.254ZM227.821 194.771C231.6 190.929 233.956 185.927 234.606 180.653C238.943 179.78 243.428 179.984 247.668 181.245C251.908 182.506 255.775 184.787 258.93 187.888C264.085 192.957 266.957 199.731 267.018 206.961C267.079 214.191 264.32 221.012 259.25 226.167C248.786 236.812 231.613 236.954 220.97 226.488C217.756 223.337 215.381 219.433 214.059 215.13C212.738 210.827 212.513 206.263 213.404 201.851C218.872 201.188 223.954 198.693 227.821 194.771Z" fill="black"/>
<path d="M172.927 207.583C173.082 226.06 180.423 243.371 193.597 256.326C207.057 269.562 224.558 276.265 242.116 276.265C257.703 276.264 273.335 270.98 286.216 260.293C286.974 259.664 287.601 258.892 288.06 258.021C288.52 257.15 288.804 256.197 288.895 255.216C288.986 254.235 288.884 253.246 288.593 252.305C288.302 251.364 287.828 250.49 287.199 249.731C286.57 248.973 285.798 248.347 284.927 247.887C284.056 247.427 283.103 247.144 282.122 247.052C281.142 246.961 280.152 247.064 279.211 247.355C278.27 247.646 277.396 248.119 276.638 248.748C255.192 266.539 224.013 265.2 204.114 245.63C193.796 235.484 188.047 221.927 187.926 207.456C187.805 192.986 193.326 179.334 203.472 169.017C213.618 158.7 227.175 152.951 241.646 152.829C256.126 152.758 269.768 158.228 280.085 168.376C294.552 182.603 299.844 203.502 293.897 222.92C293.314 224.822 293.511 226.877 294.444 228.634C295.377 230.39 296.97 231.705 298.872 232.287C302.832 233.502 307.026 231.272 308.24 227.312C314.569 206.646 310.916 184.668 298.824 167.403C305.414 166.168 311.426 162.204 315.088 156.063C321.364 146.071 318.526 129.706 306.74 123.038L233.925 79.607C220.682 71.165 199.226 76.54 192.506 92.703C186.29 105.777 192.241 124.831 207.172 131.099L226.297 139.653C213.664 142.591 202.092 149.028 192.776 158.5C179.822 171.675 172.772 189.106 172.927 207.583ZM205.901 109.587C205.237 107.863 204.922 106.024 204.973 104.177C205.025 102.33 205.442 100.512 206.201 98.827C209.87 92.266 216.855 87.651 226.264 92.504L299.058 135.922C302.216 137.916 305.074 142.833 302.207 148.381C301.068 150.295 299.266 151.723 297.143 152.395C295.02 153.066 292.724 152.933 290.692 152.022L213.296 117.407C211.608 116.657 210.085 115.58 208.815 114.237C207.546 112.895 206.555 111.314 205.901 109.587Z" fill="black"/>
</g>
<defs>
<clipPath id="clip0_20_211">
<rect width="512" height="512" fill="white"/>
</clipPath>
</defs>
</svg>
