<svg width="512" height="512" viewBox="0 0 512 512" fill="none" xmlns="http://www.w3.org/2000/svg">
<g clip-path="url(#clip0_19_145)">
<path d="M321.048 448.006C417.607 413.692 450.197 334.745 480.74 244.859C487.004 226.424 495.224 207.304 502.124 192.32C508.689 178.061 501.163 161.328 486.202 156.681C388.153 126.227 349.333 59.972 299.481 52.7765C253.748 46.1752 218.97 80.4042 207.503 120.592C173.554 96.3008 125.068 91.217 93.3868 124.916C58.8527 161.65 69.6535 237.713 11.8602 322.716C3.04209 335.687 7.55268 353.475 21.5516 360.536C36.2628 367.956 54.5772 377.788 70.936 388.304C149.856 439.039 228.702 481.795 321.048 448.006Z" fill="#FF5492"/>
<path d="M321.048 448.006C417.607 413.692 450.197 334.745 480.74 244.859C487.004 226.424 495.224 207.304 502.124 192.32C508.689 178.061 501.163 161.328 486.202 156.681C388.153 126.227 349.333 59.972 299.481 52.7765C253.748 46.1752 218.97 80.4042 207.503 120.592C173.554 96.3008 125.068 91.217 93.3868 124.916C58.8527 161.65 69.6535 237.713 11.8602 322.716C3.04209 335.687 7.55268 353.475 21.5516 360.536C36.2628 367.956 54.5772 377.788 70.936 388.304C149.856 439.039 228.702 481.795 321.048 448.006Z" fill="#ED4A3E"/>
<path d="M486.203 156.681C388.153 126.227 349.333 59.9721 299.481 52.7766C288.387 51.175 277.941 51.9823 268.313 54.6882C314.176 67.7798 354.006 128.05 446.189 156.682C461.149 161.329 468.675 178.063 462.11 192.321C455.211 207.305 446.991 226.426 440.727 244.86C410.185 334.746 377.594 413.693 281.035 448.008C265.122 453.83 249.611 457.378 234.43 459.005C262.179 461.908 290.894 459.041 321.049 448.008C417.608 413.693 450.198 334.746 480.741 244.86C487.005 226.426 495.225 207.305 502.125 192.321C508.689 178.062 501.163 161.328 486.203 156.681Z" fill="#D63322"/>
<path d="M106.269 297.882L97.3113 303.885C97.3113 303.885 100.79 301.83 106.269 297.882ZM396.897 196.153C403.639 195.823 407.637 195.261 407.637 195.261L396.897 196.153ZM298.08 173.105C263.302 214.036 221.776 228.097 169.266 218.194C155.567 258.493 122.315 286.322 106.269 297.882L109.377 295.799C109.377 295.799 188.174 237.514 264.278 283.427C295.293 200.02 393.171 196.462 393.171 196.462L396.897 196.153C377.157 197.119 333.844 196.09 298.08 173.105Z" fill="white"/>
<path d="M509.109 167.888C507.167 163.531 504.318 159.638 500.751 156.47C497.185 153.302 492.983 150.931 488.428 149.517C447.781 136.892 418.399 118.172 397.342 103.271C389.676 97.8484 380.663 109.851 388.675 115.521C410.636 131.06 441.316 150.595 483.977 163.847C494.38 167.078 499.881 179.253 495.309 189.182C486.261 208.833 478.968 226.754 473.635 242.446C459.544 283.921 443.751 327.397 419.45 363.048C393.659 400.887 361.592 425.637 318.471 440.962C229.157 473.642 152.338 431.716 74.9923 381.994C61.0694 373.043 44.2265 363.571 24.9307 353.838C15.1873 348.925 11.9272 335.963 18.0643 326.936C50.3067 279.513 61.7517 234.571 70.9459 198.46C78.5016 168.79 84.4687 145.357 98.8527 130.057C128.965 98.0254 174.02 105.861 203.136 126.696C207.29 129.667 213.316 127.564 214.716 122.652C224.555 88.176 254.942 53.9339 298.409 60.2031C317.399 62.9441 335.294 75.5465 356.714 91.7372C364.205 97.3962 373.594 85.6851 365.763 79.766C342.595 62.2559 323.084 48.6041 300.552 45.3519C277.076 41.9617 254.729 48.1669 235.936 63.2952C221.713 74.7453 210.401 90.7319 203.453 109C186.662 99.0418 167.873 93.5919 149.627 93.5059C125.542 93.3808 104.182 102.478 87.9169 119.778C70.8799 137.9 64.1715 164.249 56.4018 194.756C47.4967 229.73 36.4138 273.255 5.65297 318.499C-5.49095 334.889 0.431131 358.287 18.1704 367.235C37.003 376.734 53.3897 385.947 66.8755 394.616C111.157 423.084 148.824 444.589 188.724 457.016C211.274 464.039 233.146 467.552 254.609 467.552C277.96 467.552 300.828 463.394 323.559 455.077C422.079 420.065 456.248 340.253 487.841 247.274C493.007 232.073 500.105 214.638 508.937 195.459C510.926 191.14 511.97 186.447 512 181.692C512.029 176.937 511.044 172.231 509.109 167.888Z" fill="black"/>
<path d="M407.016 187.784C371.166 190.761 333.053 186.664 302.135 166.794C300.606 165.811 298.773 165.417 296.975 165.684C295.177 165.951 293.537 166.862 292.361 168.247C259.621 206.78 220.95 220.306 170.655 210.822C168.88 210.488 167.043 210.805 165.483 211.716C163.923 212.627 162.744 214.07 162.162 215.78C150.321 250.614 123.055 277.605 93.1337 297.653C85.542 302.739 92.8976 315.209 101.125 310.345C124.99 296.304 145.825 281.943 173.966 276.138C183.161 274.241 180.549 259.459 170.934 261.443C163.479 262.98 156.453 264.972 149.964 267.188C159.319 255.702 168.023 242.144 174.149 226.647C182.984 228.017 191.535 228.704 199.813 228.704C238.715 228.703 271.59 213.529 299.558 182.784C313.978 191.077 329.208 196.25 343.657 199.397C307.58 212.324 276.418 237.336 260.548 272.743C245.547 264.967 229.519 260.286 212.788 258.809C203.438 257.974 201.688 272.892 211.467 273.755C227.644 275.184 243.089 280.013 257.43 288.117L267.312 316.459C270.448 325.45 284.689 320.722 281.481 311.519L271.987 284.288C284.236 252.813 308.009 229.777 342.693 215.813C364.596 206.995 385.935 205.885 408.681 202.69C417.737 201.418 416.528 186.98 407.016 187.784Z" fill="black"/>
</g>
<defs>
<clipPath id="clip0_19_145">
<rect width="512" height="512" fill="white"/>
</clipPath>
</defs>
</svg>
