<svg width="512" height="512" viewBox="0 0 512 512" fill="none" xmlns="http://www.w3.org/2000/svg">
<mask id="mask0_20_243" style="mask-type:luminance" maskUnits="userSpaceOnUse" x="0" y="0" width="512" height="512">
<path d="M0 0.00149536H511.999V512H0V0.00149536Z" fill="white"/>
</mask>
<g mask="url(#mask0_20_243)">
<path d="M472.739 355.38V430.837C472.739 446.47 460.067 459.143 444.434 459.143H256.285C231.759 459.121 211.892 439.243 211.913 414.717V413.571C211.955 376.31 242.181 346.127 279.432 346.127H422.52L423.189 269.161L467.73 338.347C471 343.426 472.739 349.339 472.739 355.38Z" fill="#FFC2A6"/>
<path d="M433.399 285.021V368.751C433.399 381.321 428.299 392.71 420.059 400.951C411.819 409.19 400.439 414.291 387.859 414.291C362.729 414.291 342.349 393.93 342.329 368.801C342.299 394.19 321.499 414.71 295.999 414.281C271.039 413.86 251.259 392.981 251.259 368.011V356.032C251.259 368.601 246.159 379.981 237.919 388.22C231.329 394.811 222.729 399.391 213.109 400.951C219.049 369.732 246.489 346.131 279.429 346.131H422.519L423.189 269.162L433.399 285.021Z" fill="#FFB492"/>
<path d="M472.736 355.377V430.837C472.736 446.473 460.062 459.147 444.437 459.147H425.687C441.323 459.147 453.996 446.473 453.996 430.837V355.377C453.992 349.336 452.253 343.425 448.985 338.345L422.935 297.883L423.186 269.161L467.724 338.345C470.996 343.423 472.736 349.336 472.736 355.377Z" fill="#FFB492"/>
<path d="M342.666 459.143H444.433C460.066 459.143 472.738 446.47 472.738 430.837V355.38C472.737 349.339 470.999 343.426 467.729 338.347L423.188 269.162L422.519 346.127H279.431C242.18 346.127 211.955 376.31 211.912 413.571V414.717C211.891 439.244 231.758 459.122 256.285 459.143H308.666" stroke="black" stroke-width="15" stroke-miterlimit="10" stroke-linecap="round" stroke-linejoin="round"/>
<path d="M387.859 146.068C374.103 146.068 361.774 152.168 353.425 161.81C350.99 164.623 347.388 166.152 343.668 166.152C339.598 166.152 335.818 164.168 333.396 160.898C332.054 159.087 330.58 157.379 328.985 155.786C320.75 147.54 309.362 142.445 296.786 142.445C279.352 142.445 264.221 152.245 256.573 166.632C254.497 170.54 250.524 173.065 246.1 173.065H246.029C242.889 173.065 239.912 171.774 237.674 169.57C229.454 161.472 218.172 156.476 205.722 156.476C189.414 156.476 175.115 165.052 167.074 177.938C164.778 181.617 160.678 183.777 156.342 183.777C152.968 183.777 149.792 182.328 147.452 179.896C139.171 171.291 127.54 165.933 114.653 165.933C89.5037 165.933 69.1167 186.32 69.1167 211.468V338.525C69.1167 363.672 89.5037 384.059 114.653 384.059C139.794 384.059 160.174 363.685 160.187 338.549C160.2 363.685 180.581 384.059 205.722 384.059C230.867 384.059 251.252 363.677 251.257 338.535V350.522C251.257 375.486 271.04 396.371 296 396.792C321.495 397.221 342.296 376.701 342.324 351.311C342.353 376.436 362.728 396.795 387.859 396.795C413.007 396.795 433.394 376.408 433.394 351.259V191.603C433.394 166.455 413.007 146.068 387.859 146.068Z" fill="#FFDAC9"/>
<path d="M433.399 191.601V351.261C433.399 363.841 428.299 375.22 420.059 383.46C411.819 391.701 400.439 396.8 387.859 396.8C384.659 396.8 381.529 396.47 378.509 395.84C387.339 394.01 395.239 389.61 401.389 383.46C409.629 375.22 414.729 363.841 414.729 351.261V191.601C414.729 169.662 399.209 151.351 378.549 147.032C381.549 146.402 384.669 146.072 387.859 146.072C413.009 146.072 433.399 166.452 433.399 191.601Z" fill="#FFC2A6"/>
<path d="M69.1177 289.335V338.524C69.1177 363.673 89.5046 384.06 114.654 384.06C139.793 384.06 160.175 363.686 160.187 338.549C160.2 363.686 180.582 384.06 205.722 384.06C230.868 384.06 251.253 363.678 251.258 338.534V350.522C251.258 375.486 271.04 396.371 296.001 396.792C321.495 397.222 342.296 376.701 342.325 351.312C342.353 376.436 362.728 396.795 387.859 396.795C413.008 396.795 433.395 376.408 433.395 351.26V253.335" stroke="black" stroke-width="15" stroke-miterlimit="10" stroke-linecap="round" stroke-linejoin="round"/>
<path d="M433.395 219.334V191.604C433.395 166.455 413.008 146.068 387.86 146.068H387.859C374.104 146.068 361.775 152.168 353.426 161.811C350.991 164.623 347.389 166.152 343.668 166.152C339.599 166.152 335.819 164.167 333.397 160.897C332.055 159.087 330.581 157.378 328.986 155.786C320.751 147.54 309.363 142.445 296.787 142.445C279.353 142.445 264.222 152.245 256.574 166.633C254.498 170.54 250.524 173.065 246.101 173.065H246.03C242.89 173.065 239.913 171.774 237.675 169.57C229.455 161.473 218.173 156.476 205.723 156.476C189.415 156.476 175.116 165.053 167.075 177.938C164.779 181.617 160.679 183.778 156.343 183.778C152.969 183.778 149.792 182.328 147.453 179.897C139.171 171.291 127.541 165.933 114.654 165.933C89.5046 165.933 69.1177 186.32 69.1177 211.469V255.334" stroke="black" stroke-width="15" stroke-miterlimit="10" stroke-linecap="round" stroke-linejoin="round"/>
<path d="M342.325 351.312V237.024" stroke="black" stroke-width="15" stroke-miterlimit="10" stroke-linecap="round" stroke-linejoin="round"/>
<path d="M251.256 351.312V237.024" stroke="black" stroke-width="15" stroke-miterlimit="10" stroke-linecap="round" stroke-linejoin="round"/>
<path d="M160.188 351.312V237.024" stroke="black" stroke-width="15" stroke-miterlimit="10" stroke-linecap="round" stroke-linejoin="round"/>
<path d="M433.395 357.285L445.949 363.31" stroke="black" stroke-width="15" stroke-miterlimit="10" stroke-linecap="round" stroke-linejoin="round"/>
<path d="M64.1857 149.518L56.2248 158.018C54.8618 159.474 53.0142 160.382 51.029 160.573C49.0438 160.763 47.0574 160.222 45.4428 159.051L10.8839 134.001C6.89292 131.109 6.34292 125.372 9.71191 121.774L24.9729 105.479C28.3419 101.882 34.1028 102.054 37.2498 105.847L64.5097 138.691C65.7832 140.226 66.4529 142.173 66.3932 144.166C66.3336 146.159 65.5487 148.062 64.1857 149.518Z" fill="#ED4A3E"/>
<path d="M37.2469 105.849L64.5088 138.686C65.7813 140.222 66.4502 142.169 66.3904 144.162C66.3306 146.155 65.5461 148.059 64.1839 149.515L56.2209 158.017C55.7801 158.488 55.2831 158.903 54.7409 159.253C55.5653 157.809 55.9294 156.147 55.7844 154.491C55.6395 152.834 54.9925 151.261 53.9299 149.982L26.675 117.138C23.524 113.345 17.762 113.179 14.396 116.773L24.975 105.477C28.34 101.883 34.1029 102.049 37.2469 105.849Z" fill="#D63322"/>
<path d="M64.1857 149.518L56.2248 158.018C54.8618 159.474 53.0142 160.382 51.029 160.573C49.0438 160.763 47.0574 160.222 45.4428 159.051L10.8839 134.001C6.89292 131.109 6.34292 125.372 9.71191 121.774L24.9729 105.479C28.3419 101.882 34.1028 102.054 37.2498 105.847L64.5097 138.691C65.7832 140.226 66.4529 142.173 66.3932 144.166C66.3336 146.159 65.5487 148.062 64.1857 149.518Z" stroke="black" stroke-width="15" stroke-miterlimit="10" stroke-linecap="round" stroke-linejoin="round"/>
<path d="M107.437 130.221L95.8737 131.616C93.8938 131.855 91.8948 131.363 90.2519 130.232C88.609 129.102 87.4352 127.411 86.9507 125.476L76.5787 84.0733C75.3807 79.2923 78.6477 74.5443 83.5407 73.9533L105.705 71.2813C110.599 70.6903 114.9 74.5253 114.874 79.4533L114.645 122.136C114.634 124.13 113.896 126.052 112.569 127.541C111.241 129.029 109.417 129.982 107.437 130.221Z" fill="#ED4A3E"/>
<path d="M114.87 79.4543L114.647 122.132C114.634 124.127 113.895 126.048 112.568 127.537C111.24 129.026 109.416 129.979 107.436 130.219L95.8717 131.613C95.2313 131.69 94.5838 131.689 93.9437 131.609C95.5037 131.033 96.8506 129.994 97.8045 128.632C98.7583 127.269 99.2737 125.648 99.2817 123.985L99.5157 81.3063C99.5387 76.3753 95.2317 72.5443 90.3438 73.1343L105.709 71.2803C110.597 70.6903 114.904 74.5213 114.87 79.4543Z" fill="#D63322"/>
<path d="M107.437 130.221L95.8737 131.616C93.8938 131.855 91.8948 131.363 90.2519 130.232C88.609 129.102 87.4352 127.411 86.9507 125.476L76.5787 84.0733C75.3807 79.2923 78.6477 74.5443 83.5407 73.9533L105.705 71.2813C110.599 70.6903 114.9 74.5253 114.874 79.4533L114.645 122.136C114.634 124.13 113.896 126.052 112.569 127.541C111.241 129.029 109.417 129.982 107.437 130.221Z" stroke="black" stroke-width="15" stroke-miterlimit="10" stroke-linecap="round" stroke-linejoin="round"/>
<path d="M457.868 137.729L449.368 129.768C447.912 128.405 447.003 126.558 446.813 124.572C446.623 122.587 447.164 120.601 448.335 118.986L473.384 84.4273C476.276 80.4363 482.013 79.8873 485.611 83.2563L501.906 98.5163C505.503 101.885 505.331 107.646 501.538 110.793L468.695 138.053C467.16 139.327 465.213 139.997 463.22 139.938C461.226 139.878 459.323 139.093 457.868 137.729Z" fill="#ED4A3E"/>
<path d="M501.536 110.791L468.7 138.053C467.164 139.326 465.217 139.995 463.223 139.935C461.23 139.875 459.326 139.09 457.87 137.728L449.369 129.766C448.898 129.325 448.483 128.827 448.133 128.285C449.577 129.109 451.238 129.474 452.895 129.329C454.551 129.184 456.124 128.537 457.404 127.475L490.247 100.22C494.04 97.0683 494.206 91.3063 490.612 87.9403L501.909 98.5203C505.502 101.885 505.336 107.647 501.536 110.791Z" fill="#D63322"/>
<path d="M457.868 137.729L449.368 129.768C447.912 128.405 447.003 126.558 446.813 124.572C446.623 122.587 447.164 120.601 448.335 118.986L473.384 84.4273C476.276 80.4363 482.013 79.8873 485.611 83.2563L501.906 98.5163C505.503 101.885 505.331 107.646 501.538 110.793L468.695 138.053C467.16 139.327 465.213 139.997 463.22 139.938C461.226 139.878 459.323 139.093 457.868 137.729Z" stroke="black" stroke-width="15" stroke-miterlimit="10" stroke-linecap="round" stroke-linejoin="round"/>
<path d="M419.019 111.855L407.456 113.25C405.476 113.489 403.477 112.997 401.834 111.867C400.191 110.736 399.017 109.045 398.533 107.11L388.161 65.7074C386.963 60.9265 390.23 56.1785 395.123 55.5875L417.287 52.9155C422.181 52.3245 426.482 56.1595 426.456 61.0875L426.227 103.77C426.216 105.765 425.478 107.686 424.151 109.175C422.823 110.664 420.999 111.617 419.019 111.855Z" fill="#ED4A3E"/>
<path d="M426.452 61.0884L426.229 103.766C426.216 105.761 425.477 107.682 424.15 109.171C422.822 110.66 420.998 111.613 419.018 111.853L407.454 113.247C406.813 113.324 406.166 113.323 405.526 113.243C407.086 112.667 408.433 111.628 409.386 110.266C410.34 108.903 410.856 107.282 410.864 105.619L411.098 62.9404C411.121 58.0095 406.814 54.1785 401.926 54.7685L417.291 52.9145C422.179 52.3245 426.486 56.1555 426.452 61.0884Z" fill="#D63322"/>
<path d="M419.019 111.855L407.456 113.25C405.476 113.489 403.477 112.997 401.834 111.867C400.191 110.736 399.017 109.045 398.533 107.11L388.161 65.7074C386.963 60.9265 390.23 56.1785 395.123 55.5875L417.287 52.9155C422.181 52.3245 426.482 56.1595 426.456 61.0875L426.227 103.77C426.216 105.765 425.478 107.686 424.151 109.175C422.823 110.664 420.999 111.617 419.019 111.855Z" stroke="black" stroke-width="15" stroke-miterlimit="10" stroke-linecap="round" stroke-linejoin="round"/>
<path d="M151.667 233.668H171.666" stroke="black" stroke-width="15" stroke-miterlimit="10" stroke-linecap="round" stroke-linejoin="round"/>
<path d="M241.256 233.668H261.256" stroke="black" stroke-width="15" stroke-miterlimit="10" stroke-linecap="round" stroke-linejoin="round"/>
<path d="M330.847 233.668H350.847" stroke="black" stroke-width="15" stroke-miterlimit="10" stroke-linecap="round" stroke-linejoin="round"/>
</g>
</svg>
