<svg width="512" height="512" viewBox="0 0 512 512" fill="none" xmlns="http://www.w3.org/2000/svg">
<g clip-path="url(#clip0_16_45)">
<path d="M340.889 427.501C374.09 398.774 387.302 359.65 370.4 340.115C353.497 320.58 312.88 328.031 279.679 356.759C246.478 385.486 233.266 424.61 250.168 444.145C267.071 463.68 307.688 456.228 340.889 427.501Z" fill="#A0C64E"/>
<path d="M361.222 333.101C341.392 323.333 307.874 332.377 279.693 356.761C246.493 385.486 233.283 424.611 250.186 444.146C258.723 454.012 273.311 456.986 289.935 453.822C244.911 431.633 297.336 345.264 361.222 333.101Z" fill="#8BAA33"/>
<path d="M246.295 115.891C246.312 115.881 246.33 115.873 246.349 115.867C256.42 105.064 269.457 95.013 280.488 89.021C268.704 24.481 178.398 15.495 178.398 15.495C178.398 15.495 134.233 21.388 134.233 48.431C134.231 48.432 137.854 115.891 246.295 115.891Z" fill="#A31714"/>
<path d="M217.197 246.086V255.927C217.197 270.025 228.625 281.454 242.724 281.454C256.821 281.454 268.251 270.025 268.251 255.927V246.11C251.472 250.155 233.971 250.147 217.197 246.086Z" fill="#149334"/>
<path d="M240.731 255.927V249.108C232.799 248.964 224.907 247.95 217.197 246.086V255.927C217.197 275.125 237.604 287.373 254.491 278.578C246.317 274.323 240.731 265.78 240.731 255.927Z" fill="#0C681F"/>
<path d="M279.692 356.761C246.492 385.486 233.282 424.611 250.185 444.146L370.413 340.12C353.508 320.584 312.893 328.034 279.692 356.761Z" fill="#50AF48"/>
<path d="M172.545 400.591C196.345 421.184 225.462 426.525 237.579 412.521C249.697 398.516 240.226 370.469 216.426 349.876C192.626 329.283 163.509 323.942 151.392 337.947C139.274 351.951 148.745 379.998 172.545 400.591Z" fill="#50AF48"/>
<path d="M181.897 331.429C139.406 321.693 132.996 366.391 172.517 400.587C194.739 419.816 221.593 425.741 234.921 415.043C192.566 405.338 157.443 351.068 181.897 331.429Z" fill="#409337"/>
<path d="M216.399 349.871C240.2 370.465 249.671 398.512 237.554 412.517L151.364 337.941C163.481 323.935 192.599 329.277 216.399 349.871Z" fill="#A0C64E"/>
<path d="M181.897 331.429C180.901 331.429 163.263 326.346 152.593 336.643C152.164 337.058 151.753 337.49 151.362 337.94L175.125 358.501C172.687 348.357 173.871 337.874 181.897 331.429Z" fill="#8BAA33"/>
<path d="M248.316 113.898H248.289C139.847 113.898 134.232 48.4319 134.232 48.4319V142.639C134.232 189.102 163.558 228.768 204.6 244.226C204.605 179.704 224.711 139.222 248.316 113.898Z" fill="#BF261B"/>
<path d="M278.493 89.021C303.81 75.271 329.008 72.344 342.062 71.845C333.138 52.176 292.562 -17.886 178.396 15.495C178.397 15.496 266.71 24.481 278.493 89.021Z" fill="#911212"/>
<path d="M278.493 89.021C270.364 44.489 225.802 26.409 198.953 19.477L198.946 19.476C198.946 19.476 161.032 80.46 246.294 113.897C246.311 113.887 246.329 113.879 246.348 113.873C256.42 103.071 267.463 95.013 278.493 89.021Z" fill="#7A0C0C"/>
<path d="M343.96 71.7829C314.387 72.4769 204.485 85.7149 204.478 244.18C275.378 270.883 351.216 218.382 351.216 142.639V81.4019C351.217 71.9489 344.637 71.7769 343.96 71.7829Z" fill="#D63322"/>
<path d="M273.984 246.553C318.66 233.134 351.217 191.7 351.217 142.639V86.6008C314.941 103.382 260.721 145.696 273.984 246.553Z" fill="#ED4A3E"/>
<path d="M164.781 43.482C164.781 30.641 173.336 21.952 183.375 16.172C180.219 15.677 178.398 15.495 178.398 15.495C178.398 15.495 134.233 21.388 134.233 48.431C134.233 48.431 135.711 75.785 164.781 95.656V43.482Z" fill="#870F0F"/>
<path d="M164.781 151.76V93.3389C136.443 74.1419 134.233 48.4319 134.233 48.4319V142.639C134.233 189.102 163.559 228.768 204.601 244.226C204.601 243.998 204.607 243.777 204.608 243.549C180.131 220.772 164.781 188.096 164.781 151.76Z" fill="#A31714"/>
<path d="M361.222 333.101C341.392 323.333 307.874 332.377 279.693 356.761C246.493 385.486 233.283 424.611 250.186 444.146L273.41 424.051C274.293 386.912 318.165 341.299 361.222 333.101Z" fill="#409337"/>
<path d="M376.04 336.138C348.865 304.734 282.051 331.205 250.175 379.826V288.971C264.781 285.574 275.7 272.46 275.7 256.833V254.72C323.618 240.472 358.666 196.029 358.666 143.545V135.974C358.666 133.992 357.879 132.091 356.478 130.69C355.076 129.288 353.175 128.501 351.193 128.501C349.211 128.501 347.311 129.288 345.909 130.69C344.508 132.091 343.72 133.992 343.72 135.974V143.545C343.72 211.626 277.029 260.572 211.974 239.791C212.943 181.007 230.414 124.537 282.038 96.4948C301.013 86.1908 323.158 80.7618 343.463 80.1778C343.812 81.2408 343.721 80.2848 343.721 108.073C343.721 110.055 344.509 111.956 345.91 113.357C347.312 114.758 349.212 115.546 351.194 115.546C353.176 115.546 355.077 114.758 356.479 113.357C357.88 111.956 358.667 110.055 358.667 108.073C358.667 81.3188 359.897 75.2659 353.915 69.3449C351.557 67.0109 348.899 65.9889 346.855 65.5469C341.023 54.1229 327.843 33.3319 303.605 18.33C269.989 -2.47499 227.335 -5.58298 176.818 9.07699C170.986 9.95299 126.734 17.65 126.734 49.3399V143.547C126.734 167.592 134.029 190.655 147.831 210.241C162.998 231.763 184.733 247.311 209.699 254.727V256.834C209.699 272.46 220.619 285.575 235.226 288.972V359.832C231.283 354.721 226.619 349.76 221.264 345.127C175.053 305.143 126.128 324.974 141.364 370.092C154.438 408.806 206.355 440.31 235.225 424.685V504.527C235.225 506.509 236.012 508.41 237.413 509.812C238.815 511.213 240.716 512.001 242.698 512.001C244.68 512.001 246.581 511.213 247.983 509.812C249.384 508.41 250.172 506.509 250.172 504.527V455.204C272.798 472.156 313.576 461.918 345.768 434.066C382.647 402.156 395.942 359.142 376.04 336.138ZM202.827 29.2819C233.001 38.2589 261.819 55.7599 269.97 86.1758C260.664 91.7438 251.868 98.5858 244.401 105.965C220.589 95.7828 205.771 82.4348 200.334 66.2409C195.231 51.0519 199.692 36.5909 202.827 29.2819ZM330.165 66.1909C317.713 67.6399 300.928 71.0879 283.483 79.0748C273.468 46.8319 244.469 27.147 212.554 16.595C283.694 6.88599 316.931 43.9869 330.165 66.1909ZM178.519 23.949C180.061 24.149 183.48 24.645 188.161 25.603C177.036 53.8609 183.452 83.3568 211.735 104.603C165.466 96.6698 143.845 71.0229 141.684 49.0729C141.987 31.1119 172.971 24.911 178.519 23.949ZM141.681 143.545V84.3008C162.736 110.466 197.309 119.791 230.702 121.821C207.156 153.71 198.524 194.101 197.172 233.713C163.588 216.699 141.681 181.714 141.681 143.545ZM224.692 258.114C236.869 260.02 249.366 259.919 260.708 258.113C260.05 267.474 252.224 274.888 242.7 274.888C233.176 274.888 225.35 267.474 224.692 258.114ZM234.968 401.325L163.584 339.561C191.586 330.653 239.376 372.739 234.968 401.325ZM210.741 413.084C180.093 407.463 150.216 372.519 153.803 350.864L225.284 412.712C220.232 414.321 214.459 413.765 210.741 413.084ZM288.06 447.48C277.366 449.441 268.315 448.514 261.749 444.908L324.265 390.817C325.746 389.515 326.653 387.681 326.787 385.713C326.922 383.746 326.273 381.805 324.983 380.314C323.693 378.822 321.865 377.901 319.899 377.751C317.933 377.602 315.987 378.235 314.485 379.513L251.967 433.607C238.672 398.349 297.355 337.071 343.451 337.581C348.776 337.647 354.134 338.605 358.804 341.169L333.675 362.911C332.176 364.208 331.254 366.047 331.111 368.024C330.968 370.001 331.616 371.954 332.913 373.453C334.21 374.952 336.05 375.875 338.027 376.018C340.004 376.16 341.956 375.512 343.455 374.215L368.582 352.474C379.854 382.486 335.658 438.75 288.06 447.48Z" fill="black"/>
</g>
<defs>
<clipPath id="clip0_16_45">
<rect width="512" height="512" fill="white"/>
</clipPath>
</defs>
</svg>
