<svg width="512" height="512" viewBox="0 0 512 512" fill="none" xmlns="http://www.w3.org/2000/svg">
<mask id="mask0_18_106" style="mask-type:luminance" maskUnits="userSpaceOnUse" x="0" y="0" width="512" height="512">
<path d="M0 0.00149536H511.999V512H0V0.00149536Z" fill="white"/>
</mask>
<g mask="url(#mask0_18_106)">
<path d="M227.964 63.5613L261.5 41.0834C275.775 31.5162 293.077 27.5515 310.093 29.9484L333.894 33.3024C339.895 34.1479 345.456 36.9257 349.737 41.2151C354.018 45.5045 356.784 51.072 357.617 57.0744L363.252 97.6582C364.981 110.114 358.156 122.186 346.592 127.128L266.403 166.064L227.964 63.5613Z" fill="#FE646F"/>
<path d="M363.252 97.6582L357.617 57.0754C356.784 51.0728 354.018 45.5051 349.737 41.2155C345.457 36.9259 339.895 34.148 333.894 33.3024L310.093 29.9494C303.543 29.0294 296.895 29.0462 290.349 29.9995L313.79 33.3024C319.791 34.1477 325.353 36.9255 329.634 41.2151C333.915 45.5048 336.682 51.0726 337.515 57.0754L343.148 97.6582C343.99 103.718 342.815 109.886 339.804 115.212C336.793 120.538 332.114 124.725 326.488 127.128L263.307 157.807L266.403 166.065L346.592 127.128C352.217 124.724 356.896 120.537 359.907 115.211C362.917 109.886 364.093 103.718 363.252 97.6582Z" fill="#FD4755"/>
<path d="M143.947 126.752L136.253 91.3063C131.737 70.9873 141.564 50.1914 160.128 40.7774L220.115 10.3615C224.785 7.99343 230.053 7.06477 235.252 7.69318C240.45 8.32159 245.345 10.4788 249.316 13.8915L283.667 43.4104L209.416 161.131L143.947 126.752Z" fill="#FE646F"/>
<path d="M263.564 96.2452C263.864 111.672 262.15 127.134 258.155 142.03C247.22 187.77 179.323 184.21 172.559 137.828C165.579 110.241 161.116 64.7013 200.707 63.5623C227.43 62.8354 261.883 59.9484 263.564 96.2452Z" fill="#FD4755"/>
<path d="M249.316 13.8915C245.614 10.7106 241.103 8.61632 236.284 7.84045C231.465 7.06458 226.525 7.63742 222.011 9.49554C224.632 10.5654 227.064 12.0497 229.213 13.8915L263.565 43.4104L194.315 153.202L209.416 161.132L283.667 43.4104L249.316 13.8915Z" fill="#FD4755"/>
<path d="M246.527 504.5H216.808V445.642C216.808 423.784 223.361 402.715 235.759 384.713L237.339 382.421C246.305 369.401 251.046 354.162 251.046 338.352V258.012H280.764V338.352C280.764 360.208 274.212 381.277 261.813 399.279L260.234 401.572C251.267 414.592 246.527 429.832 246.527 445.642V504.5Z" fill="#6FD7A3"/>
<path d="M264.649 258.011V338.351C264.649 360.207 258.095 381.276 245.697 399.279L244.118 401.571C235.151 414.591 230.411 429.831 230.411 445.641V504.499H246.527V445.641C246.527 429.831 251.267 414.591 260.234 401.571L261.813 399.279C274.212 381.276 280.764 360.207 280.764 338.351V258.011H264.649Z" fill="#3EC3A4"/>
<path d="M293.582 359.597L280.765 344.035L293.582 328.472C296.501 324.927 300.168 322.073 304.32 320.113C308.472 318.154 313.007 317.138 317.598 317.138H324.623C329.215 317.138 333.749 318.154 337.901 320.113C342.054 322.073 345.721 324.927 348.64 328.472L354.53 335.625C356.48 337.993 357.547 340.966 357.547 344.035C357.547 347.103 356.48 350.076 354.53 352.444L348.64 359.597C345.721 363.142 342.054 365.996 337.901 367.955C333.749 369.915 329.214 370.931 324.623 370.931H317.598C313.007 370.931 308.472 369.915 304.32 367.956C300.168 365.996 296.501 363.142 293.582 359.597Z" fill="#6FD7A3"/>
<path d="M354.53 335.625L348.639 328.472C345.72 324.927 342.053 322.073 337.901 320.113C333.749 318.154 329.214 317.138 324.623 317.138H317.597C315.399 317.139 313.207 317.375 311.059 317.84C317.917 319.311 324.076 323.058 328.536 328.472L334.427 335.625C336.378 337.993 337.444 340.966 337.444 344.035C337.444 347.103 336.378 350.076 334.427 352.444L328.536 359.597C324.076 365.011 317.917 368.758 311.059 370.229C313.189 370.687 315.379 370.931 317.597 370.931H324.623C329.214 370.931 333.749 369.915 337.901 367.956C342.053 365.996 345.72 363.142 348.639 359.597L354.53 352.444C356.48 350.076 357.546 347.103 357.546 344.035C357.546 340.966 356.48 337.993 354.53 335.625Z" fill="#3EC3A4"/>
<path d="M203.989 449.458L216.806 433.895L203.989 418.332C201.071 414.788 197.404 411.934 193.252 409.974C189.099 408.014 184.565 406.998 179.973 406.998H172.947C168.356 406.998 163.822 408.015 159.67 409.974C155.517 411.934 151.85 414.788 148.932 418.332L143.042 425.485C141.091 427.854 140.024 430.827 140.024 433.895C140.024 436.964 141.091 439.937 143.042 442.305L148.932 449.458C151.85 453.002 155.517 455.857 159.67 457.816C163.822 459.776 168.356 460.792 172.947 460.792H179.973C184.565 460.792 189.099 459.776 193.252 457.816C197.404 455.857 201.071 453.003 203.989 449.458Z" fill="#6FD7A3"/>
<path d="M203.989 418.332C201.07 414.788 197.403 411.934 193.251 409.975C189.099 408.015 184.565 406.999 179.973 406.999H172.947C170.729 406.999 168.539 407.242 166.409 407.7C173.267 409.173 179.426 412.92 183.886 418.332L196.703 433.895L183.886 449.458C179.426 454.871 173.267 458.618 166.409 460.091C168.539 460.549 170.729 460.792 172.947 460.792H179.973C184.565 460.792 189.099 459.776 193.251 457.816C197.404 455.857 201.071 453.003 203.989 449.458L216.806 433.895L203.989 418.332Z" fill="#3EC3A4"/>
<path d="M283.667 96.2452V100.891C283.667 112.001 282.504 123.074 280.186 133.92C279.815 135.673 279.412 137.419 278.976 139.157L278.258 142.03C273.421 161.449 255.984 175.078 235.974 175.078C215.89 175.078 198.407 161.358 193.644 141.848L192.662 137.829C189.651 125.519 188.127 112.892 188.125 100.218V96.2452C188.125 78.1993 202.762 63.5613 220.809 63.5613H250.993C269.039 63.5613 283.667 78.1993 283.667 96.2452Z" fill="#FC8B96"/>
<path d="M250.993 63.5613H227.462C246.156 65.0143 262.423 71.5863 263.565 96.2452C263.865 111.671 262.151 127.133 258.156 142.029C253.764 160.397 240.186 170.808 225.072 173.695C228.633 174.614 232.296 175.078 235.974 175.077C255.984 175.077 273.421 161.449 278.258 142.029L278.976 139.157C282.095 126.641 283.671 113.79 283.667 100.891V96.2452C283.667 78.1983 269.039 63.5613 250.993 63.5613Z" fill="#FE646F"/>
<path d="M283.667 96.2452V100.891C283.667 112.001 282.504 123.074 280.186 133.92H255.593C251.929 133.92 248.292 133.657 244.701 133.147C229.709 131.019 215.669 124.542 204.317 114.519L188.125 100.218V96.2452C188.125 78.1993 202.762 63.5613 220.809 63.5613H250.993C269.039 63.5613 283.667 78.1993 283.667 96.2452Z" fill="#FC8B96"/>
<path d="M250.993 63.5613H227.474C246.163 65.0203 262.434 71.6033 263.565 96.2452C263.766 108.879 262.771 121.582 260.082 133.92H280.186C282.503 123.063 283.67 111.993 283.667 100.891V96.2452C283.667 78.1983 269.039 63.5613 250.993 63.5613Z" fill="#FE646F"/>
<path d="M346.592 127.128L371.946 122.468C378.884 121.192 384.207 128.522 380.849 134.725L358.616 175.783C355.47 181.594 353.011 187.751 351.289 194.13L343.892 221.545C335.166 253.883 305.835 276.349 272.341 276.349H239.731C206.249 276.349 176.926 253.899 168.189 221.578L161.017 195.048C159.13 188.064 156.358 181.349 152.77 175.066L131.251 137.374C127.506 130.815 133.648 123.031 140.898 125.149L203.563 158.057C213.682 163.371 224.863 166.35 236.284 166.776C247.705 167.201 259.076 165.063 269.562 160.518L346.592 127.128Z" fill="#FE646F"/>
<path d="M371.946 122.468L359.293 124.794C361.737 127.258 362.669 131.173 360.745 134.726L338.512 175.783C332.213 186.698 327.211 209.29 323.789 221.546C313.916 258.45 285.072 273.05 252.398 276.349H272.341C305.835 276.349 335.166 253.884 343.891 221.546L351.289 194.131C353.01 187.751 355.469 181.594 358.615 175.783L380.848 134.726C384.207 128.523 378.883 121.193 371.946 122.468Z" fill="#FD4755"/>
<path d="M251.046 330.231L251.049 276.351" stroke="black" stroke-width="15" stroke-miterlimit="10" stroke-linecap="round" stroke-linejoin="round"/>
<path d="M216.809 504.5V445.64C216.809 423.78 223.359 402.72 235.759 384.71L237.339 382.42C241.168 376.871 244.258 370.847 246.532 364.499" stroke="black" stroke-width="15" stroke-miterlimit="10" stroke-linecap="round" stroke-linejoin="round"/>
<path d="M280.769 275.871V338.351C280.769 360.21 274.209 381.28 261.809 399.28L260.24 401.57C251.269 414.59 246.529 429.83 246.529 445.64V504.5" stroke="black" stroke-width="15" stroke-miterlimit="10" stroke-linecap="round" stroke-linejoin="round"/>
<path d="M293.582 359.597L280.765 344.035L293.582 328.472C296.501 324.927 300.168 322.073 304.32 320.113C308.472 318.154 313.007 317.138 317.598 317.138H324.623C329.215 317.138 333.749 318.154 337.901 320.113C342.054 322.073 345.721 324.927 348.64 328.472L354.53 335.625C356.48 337.993 357.547 340.966 357.547 344.035C357.547 347.103 356.48 350.076 354.53 352.444L348.64 359.597C345.721 363.142 342.054 365.996 337.901 367.955C333.749 369.915 329.214 370.931 324.623 370.931H317.598C313.007 370.931 308.472 369.915 304.32 367.956C300.168 365.996 296.501 363.142 293.582 359.597Z" stroke="black" stroke-width="15" stroke-miterlimit="10" stroke-linecap="round" stroke-linejoin="round"/>
<path d="M203.989 449.458L216.806 433.895L203.989 418.332C201.071 414.788 197.404 411.934 193.252 409.974C189.099 408.014 184.565 406.998 179.973 406.998H172.947C168.356 406.998 163.822 408.015 159.67 409.974C155.517 411.934 151.85 414.788 148.932 418.332L143.042 425.485C141.091 427.854 140.024 430.827 140.024 433.895C140.024 436.964 141.091 439.937 143.042 442.305L148.932 449.458C151.85 453.002 155.517 455.857 159.67 457.816C163.822 459.776 168.356 460.792 172.947 460.792H179.973C184.565 460.792 189.099 459.776 193.252 457.816C197.404 455.857 201.071 453.003 203.989 449.458Z" stroke="black" stroke-width="15" stroke-miterlimit="10" stroke-linecap="round" stroke-linejoin="round"/>
<path d="M267.809 161.251V161.241C272.875 155.834 276.472 149.221 278.259 142.031L278.979 139.161C279.41 137.421 279.809 135.671 280.19 133.921C282.502 123.063 283.668 111.993 283.669 100.891V96.2412C283.669 78.2013 269.039 63.5613 250.989 63.5613H220.809C202.759 63.5613 188.129 78.2013 188.129 96.2412V100.221C188.129 112.891 189.649 125.521 192.66 137.831L193.64 141.851C194.898 147.002 197.087 151.879 200.1 156.241" stroke="black" stroke-width="15" stroke-miterlimit="10" stroke-linecap="round" stroke-linejoin="round"/>
<path d="M283.667 96.2452V100.891C283.667 112.001 282.504 123.074 280.186 133.92H255.593C251.929 133.92 248.292 133.657 244.701 133.147C229.709 131.019 215.669 124.542 204.317 114.519L188.125 100.218V96.2452C188.125 78.1993 202.762 63.5613 220.809 63.5613H250.993C269.039 63.5613 283.667 78.1993 283.667 96.2452Z" stroke="black" stroke-width="15" stroke-miterlimit="10" stroke-linecap="round" stroke-linejoin="round"/>
<path d="M242.962 98.0452C241.013 88.5028 237.454 79.3615 232.439 71.0123L227.963 63.5613H250.983C269.034 63.5613 283.667 78.1943 283.667 96.2452V100.891C283.667 112.001 282.504 123.074 280.185 133.92H255.592C251.928 133.92 248.292 133.656 244.701 133.147" stroke="black" stroke-width="15" stroke-miterlimit="10" stroke-linecap="round" stroke-linejoin="round"/>
<path d="M227.959 63.5614L261.499 41.0814C275.772 31.5144 293.074 27.5512 310.089 29.9515L333.889 33.3014C346.219 35.0414 355.909 44.7414 357.619 57.0714L363.249 97.6613C364.979 110.111 358.159 122.191 346.589 127.131" stroke="black" stroke-width="15" stroke-miterlimit="10" stroke-linecap="round" stroke-linejoin="round"/>
<path d="M346.592 127.128L371.946 122.468C378.884 121.192 384.207 128.522 380.849 134.725L358.616 175.783C355.47 181.594 353.011 187.751 351.289 194.13L343.892 221.545C335.166 253.883 305.835 276.349 272.341 276.349H239.731C206.249 276.349 176.926 253.899 168.189 221.578L161.017 195.048C159.13 188.064 156.358 181.349 152.77 175.066L131.251 137.374C127.506 130.815 133.648 123.031 140.898 125.149L203.563 158.057C213.682 163.371 224.863 166.35 236.284 166.776C247.705 167.201 259.076 165.063 269.562 160.518L346.592 127.128Z" stroke="black" stroke-width="15" stroke-miterlimit="10" stroke-linecap="round" stroke-linejoin="round"/>
<path d="M136.041 90.3073C132.062 70.3163 141.862 50.0374 160.129 40.7814L220.119 10.3615C224.789 7.99388 230.057 7.06548 235.255 7.69388C240.453 8.32227 245.348 10.4792 249.319 13.8915L273.478 34.6514" stroke="black" stroke-width="15" stroke-miterlimit="10" stroke-linecap="round" stroke-linejoin="round"/>
<path d="M275.605 74.7643L295.115 79.8053C300.622 81.228 305.775 83.7732 310.251 87.2813C314.728 90.7893 318.432 95.1845 321.13 100.191L322.39 102.528" stroke="black" stroke-width="15" stroke-miterlimit="10" stroke-linecap="round" stroke-linejoin="round"/>
<path d="M269.562 160.518C269.562 160.518 228.579 177.877 216.81 229.732" stroke="black" stroke-width="15" stroke-miterlimit="10" stroke-linecap="round" stroke-linejoin="round"/>
</g>
</svg>
