<svg width="512" height="512" viewBox="0 0 512 512" fill="none" xmlns="http://www.w3.org/2000/svg">
<mask id="mask0_20_287" style="mask-type:luminance" maskUnits="userSpaceOnUse" x="0" y="0" width="512" height="512">
<path d="M0 0.00149536H511.999V512H0V0.00149536Z" fill="white"/>
</mask>
<g mask="url(#mask0_20_287)">
<path d="M42.5919 492.41C26.472 476.29 26.472 450.155 42.5919 434.035L158.561 318.067L179.995 306.633L228.369 355.007L90.9668 492.41C74.8468 508.53 58.7119 508.53 42.5919 492.41Z" fill="#B98080"/>
<path d="M238.369 355.007L100.967 492.41C84.848 508.53 58.712 508.53 42.5931 492.41H42.5921C39.5592 489.38 37.0174 485.895 35.0581 482.082C50.5821 490.059 70.101 487.552 83.105 474.548L191.929 365.725C195.875 361.778 195.875 355.381 191.929 351.435L158.561 318.068L179.995 296.633L218.762 325.4L238.369 355.007Z" fill="#AE6C6C"/>
<path d="M411.786 330.398L404.286 333.388L390.135 357.898C380.513 374.565 392.541 395.398 411.786 395.398C431.031 395.398 433.059 374.565 423.436 357.898L411.786 330.398Z" fill="#FE646F"/>
<path d="M179.996 296.633L251.43 368.068L272.864 379.502C277.986 384.623 286.29 384.623 291.412 379.502L357.725 323.19L379.376 291.538C452.802 218.112 493.109 123.347 474.191 21.6584C473.446 17.6504 468.527 16.1024 465.644 18.9854L366.716 109.912L179.996 296.633Z" fill="#EFEDEF"/>
<path d="M475.191 14.6584C474.445 10.6494 469.526 9.1014 466.644 11.9844L458.646 17.9824C467.461 110.685 434.698 203.346 367.941 270.103L269.977 368.067C264.856 373.189 256.551 373.189 251.43 368.067L272.864 389.502C277.986 394.623 286.29 394.623 291.411 389.502L357.725 323.188L385.376 291.538C458.802 218.112 494.109 116.346 475.191 14.6584Z" fill="#D7D0D6"/>
<path d="M475.191 13.6584C474.445 9.64939 469.527 8.10138 466.644 10.9844L458.646 17.9824L366.715 109.912C358.393 118.235 358.393 131.729 366.715 140.053L379.771 153.108C388.094 161.431 388.094 174.925 379.771 183.248L348.317 214.702C339.995 223.024 339.995 236.518 348.317 244.842L362.055 258.579C370.378 266.902 370.378 280.396 362.055 288.719L357.725 293.05C349.401 301.372 349.401 314.866 357.725 323.188L379.376 291.538C452.802 218.112 494.108 115.346 475.191 13.6584Z" fill="#FE646F"/>
<path d="M476.191 11.6584C475.445 7.64941 470.527 6.1014 467.644 8.9844L458.646 17.9824C467.46 110.668 434.71 203.313 367.978 270.067C369.094 276.644 367.131 283.642 362.055 288.719L357.725 293.05C349.402 301.372 349.402 314.866 357.725 323.188L389.376 291.538C462.802 218.112 495.108 113.346 476.191 11.6584Z" fill="#FD4755"/>
<path d="M433.437 357.898L416.117 327.898C414.192 324.565 409.381 324.565 407.456 327.898L404.287 333.388L418.437 357.898C426.733 372.268 418.929 389.723 404.287 394.264C406.715 395.018 409.243 395.401 411.786 395.398C431.03 395.398 443.06 374.565 433.437 357.898Z" fill="#FD4755"/>
<path d="M366.715 109.912C358.392 118.235 358.392 131.729 366.715 140.053L379.771 153.108C388.094 161.432 388.094 174.925 379.771 183.248L348.317 214.702C339.994 223.024 339.994 236.518 348.317 244.842L362.055 258.579C370.378 266.902 370.378 280.396 362.055 288.719L357.724 293.05C349.401 301.372 349.401 314.866 357.724 323.188" stroke="black" stroke-width="15" stroke-miterlimit="10" stroke-linecap="round" stroke-linejoin="round"/>
<path d="M75.1826 452.32C75.1826 450.331 75.9728 448.423 77.3793 447.017C78.7858 445.61 80.6935 444.82 82.6826 444.82C84.6717 444.82 86.5794 445.61 87.9859 447.017C89.3924 448.423 90.1826 450.331 90.1826 452.32C90.1826 454.309 89.3924 456.217 87.9859 457.623C86.5794 459.03 84.6717 459.82 82.6826 459.82C80.6935 459.82 78.7858 459.03 77.3793 457.623C75.9728 456.217 75.1826 454.309 75.1826 452.32Z" fill="black"/>
<path d="M407.456 327.898L390.135 357.898C380.513 374.565 392.541 395.398 411.786 395.398C431.031 395.398 443.059 374.565 433.436 357.898L416.116 327.898C414.191 324.565 409.38 324.565 407.456 327.898Z" stroke="black" stroke-width="15" stroke-miterlimit="10" stroke-linecap="round" stroke-linejoin="round"/>
<path d="M238.369 355.007L166.63 426.746" stroke="black" stroke-width="15" stroke-miterlimit="10" stroke-linecap="round" stroke-linejoin="round"/>
<path d="M143.519 449.858L100.968 492.41C84.8478 508.53 58.7128 508.53 42.5929 492.41C26.4729 476.29 26.4729 450.155 42.5929 434.035L179.995 296.632" stroke="black" stroke-width="15" stroke-miterlimit="10" stroke-linecap="round" stroke-linejoin="round"/>
<path d="M474.747 133.938C483.231 93.6664 483.722 52.1202 476.191 11.6594C475.445 7.65044 470.527 6.10243 467.643 8.98542L269.71 206.918" stroke="black" stroke-width="15" stroke-miterlimit="10" stroke-linecap="round" stroke-linejoin="round"/>
<path d="M246.597 230.031L179.996 296.633L272.864 389.502C277.986 394.623 286.29 394.623 291.411 389.502L389.376 291.538C424.678 256.245 451.067 213.052 466.359 165.534" stroke="black" stroke-width="15" stroke-miterlimit="10" stroke-linecap="round" stroke-linejoin="round"/>
</g>
</svg>
