<svg width="512" height="512" viewBox="0 0 512 512" fill="none" xmlns="http://www.w3.org/2000/svg">
<path d="M362.867 504.5H149.133C139.121 504.5 130.555 497.307 128.824 487.445L121.23 444.176C99.2529 318.962 88.2019 192.075 88.2019 64.947V18.537C88.2019 12.441 93.1429 7.5 99.2389 7.5H412.761C418.857 7.5 423.798 12.441 423.798 18.537V64.947C423.798 192.075 412.747 318.963 390.77 444.177L383.176 487.446C381.445 497.307 372.879 504.5 362.867 504.5Z" fill="#CCEFFD"/>
<path d="M138.566 164.79C134.386 164.79 131.046 168.288 131.255 172.463C135.707 261.229 145.643 349.895 160.967 437.203L164.939 459.832C165.152 461.043 165.785 462.14 166.726 462.931C167.668 463.722 168.858 464.156 170.088 464.156H341.911C343.141 464.156 344.331 463.723 345.273 462.932C346.215 462.141 346.847 461.043 347.06 459.832L351.031 437.203C366.355 349.895 376.291 261.23 380.743 172.463C380.952 168.288 377.612 164.79 373.432 164.79H138.566Z" fill="#75CFF9"/>
<path d="M412.761 7.5H382.761C388.857 7.5 393.798 12.441 393.798 18.537V64.947C393.798 192.075 382.747 318.963 360.77 444.177L353.176 487.446C351.445 497.308 342.88 504.501 332.867 504.501H362.867C372.88 504.501 381.445 497.308 383.176 487.446L390.77 444.177C412.747 318.963 423.798 192.075 423.798 64.947V18.537C423.798 12.441 418.856 7.5 412.761 7.5Z" fill="#91DAFA"/>
<path d="M373.434 164.79H343.434C347.614 164.79 350.954 168.288 350.745 172.462C346.293 261.229 336.357 349.894 321.033 437.202L317.062 459.831C316.849 461.042 316.216 462.139 315.274 462.93C314.333 463.721 313.143 464.155 311.913 464.155H341.913C343.143 464.155 344.333 463.721 345.275 462.931C346.216 462.14 346.849 461.042 347.062 459.831L351.033 437.202C366.357 349.894 376.293 261.229 380.745 172.462C380.954 168.288 377.614 164.79 373.434 164.79Z" fill="#6CBFF8"/>
<path d="M412.761 0H300.334C296.191 0 292.834 3.358 292.834 7.5C292.834 11.642 296.191 15 300.334 15H412.761C413.699 15.0011 414.598 15.374 415.261 16.0371C415.924 16.7002 416.297 17.5993 416.298 18.537V64.947C416.298 191.288 405.224 318.444 383.383 442.881L375.788 486.149C375.258 489.19 373.671 491.947 371.307 493.932C368.943 495.918 365.953 497.004 362.866 497H149.133C146.046 497.004 143.056 495.918 140.692 493.932C138.328 491.947 136.741 489.19 136.212 486.149L128.618 442.881C106.776 318.44 95.7019 191.286 95.7019 64.947V18.537C95.703 17.5993 96.0759 16.7002 96.739 16.0371C97.4021 15.374 98.3012 15.0011 99.2389 15H270.334C274.477 15 277.834 11.642 277.834 7.5C277.834 3.358 274.477 0 270.334 0H99.2389C89.0169 0 80.7019 8.316 80.7019 18.537V64.947C80.7019 192.152 91.8519 320.18 113.843 445.473L121.437 488.742C122.572 495.261 125.974 501.169 131.041 505.425C136.108 509.68 142.516 512.009 149.133 512H362.866C369.483 512.009 375.891 509.681 380.958 505.425C386.025 501.17 389.426 495.261 390.561 488.742L398.156 445.473C420.147 320.182 431.298 192.155 431.298 64.947V18.537C431.298 8.316 422.983 0 412.761 0Z" fill="black"/>
<path d="M160.899 164.79C160.899 162.801 160.109 160.893 158.702 159.487C157.296 158.08 155.388 157.29 153.399 157.29H138.566C136.557 157.294 134.57 157.704 132.724 158.496C130.878 159.288 129.211 160.446 127.824 161.899C126.444 163.354 125.374 165.073 124.676 166.953C123.978 168.833 123.669 170.835 123.765 172.838C128.228 261.831 138.26 351.212 153.581 438.499L157.553 461.128C158.067 464.079 159.607 466.753 161.9 468.679C164.194 470.605 167.094 471.659 170.089 471.655H341.912C344.907 471.659 347.808 470.605 350.101 468.679C352.395 466.753 353.935 464.078 354.448 461.127L358.42 438.498C373.741 351.204 383.773 261.822 388.235 172.837C388.332 170.834 388.022 168.832 387.324 166.952C386.626 165.072 385.555 163.353 384.175 161.898C382.788 160.445 381.121 159.288 379.276 158.496C377.43 157.704 375.443 157.294 373.434 157.29H183.399C181.41 157.29 179.502 158.08 178.096 159.487C176.689 160.893 175.899 162.801 175.899 164.79C175.899 166.779 176.689 168.687 178.096 170.093C179.502 171.5 181.41 172.29 183.399 172.29H373.243C368.805 260.59 358.847 349.287 343.645 435.906L340.002 456.656H171.996L168.354 435.907C153.152 349.295 143.193 260.598 138.756 172.291H153.399C155.388 172.29 157.296 171.5 158.702 170.093C160.109 168.687 160.899 166.779 160.899 164.79Z" fill="black"/>
</svg>
