<svg width="512" height="512" viewBox="0 0 512 512" fill="none" xmlns="http://www.w3.org/2000/svg">
<g clip-path="url(#clip0_20_164)">
<path d="M323.996 17.522C309.547 17.522 297.304 28.162 295.29 42.47L275.223 169.54H275.222V36.688C275.222 20.568 262.154 7.5 246.034 7.5C230.03 7.5 217.011 20.387 216.847 36.391L216.339 86.269L214.832 169.54H214.831L194.764 42.47C192.75 28.162 180.507 17.522 166.059 17.522C148.605 17.522 135.109 32.833 137.3 50.148L153.476 169.54L116.038 63.989C114.064 58.4228 110.414 53.6049 105.59 50.1976C100.766 46.7903 95.0049 44.9609 89.099 44.961C70.11 44.961 56.4 63.135 61.615 81.394L97.468 206.918L97.493 207.01L98.273 212.98H334.113V179.557L352.756 50.149C354.945 32.833 341.449 17.522 323.996 17.522Z" fill="#FFCEBF"/>
<path d="M334.111 169.545V463.054H135.171V387.273C135.171 380.692 133.76 374.188 131.033 368.199L120.918 345.982C115.86 334.874 112.526 323.059 111.031 310.945L98.2729 212.98L334.111 169.545Z" fill="#FFCEBF"/>
<path d="M306.911 169.545H334.111V463.054H306.911V169.545Z" fill="#FFB09E"/>
<path d="M451.573 216.91C451.573 220.93 449.893 224.96 446.483 227.82L414.103 254.99C411.138 257.477 408.516 260.345 406.303 263.52L344.633 351.92C337.784 361.741 334.112 373.427 334.113 385.4V420.87H277.253V275.97L306.913 246.45L334.113 219.38V228.23C334.113 232.53 337.673 235.53 341.473 235.45C342.858 235.424 344.206 234.997 345.353 234.22L395.033 200.84C410.773 189.86 432.123 191.77 445.673 205.35C449.593 208.18 451.573 212.54 451.573 216.91Z" fill="#FFCEBF"/>
<path d="M129.471 504.5H341.202C348.245 504.5 353.954 498.791 353.954 491.748V449.911C353.954 442.868 348.245 437.159 341.202 437.159H129.471C122.428 437.159 116.719 442.868 116.719 449.911V491.748C116.719 498.791 122.428 504.5 129.471 504.5Z" fill="#CDE2FF"/>
<path d="M341.202 437.159H314.002C321.045 437.159 326.754 442.868 326.754 449.911V491.748C326.754 498.791 321.045 504.5 314.002 504.5H341.202C348.245 504.5 353.954 498.791 353.954 491.748V449.911C353.954 442.868 348.245 437.159 341.202 437.159Z" fill="#B3DAFE"/>
<path d="M445.674 205.351C434.577 194.227 418.255 190.942 404.062 196.139C409.482 198.119 414.401 201.263 418.474 205.351C425.996 210.793 426.393 221.857 419.281 227.824L386.9 254.992C383.938 257.478 381.316 260.343 379.104 263.515L317.433 351.923C310.583 361.742 306.91 373.427 306.911 385.399V420.874H334.111V385.399C334.111 373.427 337.784 361.743 344.633 351.923L406.304 263.515C408.516 260.343 411.138 257.478 414.1 254.992L446.481 227.824C453.593 221.857 453.196 210.793 445.674 205.351Z" fill="#FFB09E"/>
<path d="M341.473 235.45L306.913 246.45L334.113 219.38V228.23C334.113 232.53 337.673 235.53 341.473 235.45ZM275.223 36.69V169.54C260.085 169.54 247.813 157.268 247.813 142.13V36.69C247.813 28.63 244.553 21.33 239.273 16.05C237.226 14.003 234.888 12.2708 232.333 10.91C236.423 8.73 241.083 7.5 246.033 7.5C254.093 7.5 261.393 10.77 266.673 16.05C271.953 21.33 275.223 28.63 275.223 36.69ZM153.473 169.54H147.868C142.282 169.54 136.83 167.833 132.241 164.649C127.652 161.464 124.145 156.954 122.191 151.721L89.4229 63.99C87.451 58.4224 83.7997 53.6041 78.9729 50.2C77.9529 49.48 76.8829 48.82 75.7729 48.25C79.7129 46.15 84.2329 44.96 89.1029 44.96C95.1529 44.96 100.873 46.86 105.593 50.2C110.42 53.6041 114.071 58.4224 116.043 63.99L153.473 169.54ZM214.833 169.54H211.224C197.737 169.54 186.254 159.728 184.15 146.406L167.733 42.47C167.097 37.92 165.386 33.5868 162.743 29.829C160.1 26.0712 156.6 22.9967 152.533 20.86C156.553 18.73 161.153 17.52 166.063 17.52C173.293 17.52 179.963 20.18 185.073 24.63C190.351 29.212 193.792 35.5486 194.763 42.47L214.833 169.54ZM352.753 50.15L334.113 179.57L306.912 169.545L325.713 50.15C327.283 37.7 320.753 26.29 310.483 20.87C314.533 18.72 319.143 17.52 323.993 17.52C341.453 17.52 354.943 32.83 352.753 50.15Z" fill="#FFB09E"/>
<path d="M459.06 216.122C458.825 209.587 455.497 203.924 450.581 199.657C433.514 184.843 409.396 181.721 390.798 194.647L341.198 227.973C336.632 229.007 274.761 247.062 243.092 299.565C242.59 300.415 242.261 301.357 242.124 302.334C241.987 303.312 242.045 304.307 242.293 305.263C242.542 306.219 242.976 307.116 243.572 307.903C244.168 308.69 244.914 309.352 245.766 309.85C246.619 310.348 247.561 310.674 248.539 310.807C249.518 310.94 250.513 310.879 251.467 310.627C252.422 310.375 253.317 309.936 254.102 309.337C254.887 308.738 255.546 307.99 256.041 307.136C282.383 262.085 339.825 243.949 343.966 242.693C345.955 242.332 347.849 241.567 349.531 240.445L399.214 207.063L399.32 206.991C405.498 202.674 413.001 200.674 420.508 201.343C428.015 202.012 435.046 205.308 440.363 210.65C443.321 212.622 446.114 217.957 441.658 222.081L409.278 249.249C405.81 252.159 402.741 255.514 400.151 259.226L338.48 347.634C330.714 358.767 326.609 371.826 326.609 385.401L326.61 429.661H142.671V387.274C141.955 360.947 119.903 337.188 118.468 309.977L105.71 212.017C105.626 207.602 102.775 197.957 101.414 193.429C100.276 189.446 96.1219 187.137 92.1429 188.277C90.2303 188.823 88.6131 190.107 87.6469 191.846C86.6807 193.584 86.4448 195.635 86.9909 197.548C88.0629 201.17 90.7299 209.961 90.8359 213.96L103.587 311.865C107.369 347.58 126.678 364.774 127.67 387.275V429.753C117.344 430.668 109.218 439.354 109.218 449.914V491.751C109.218 502.918 118.303 512.003 129.47 512.003H341.201C352.368 512.003 361.453 502.918 361.453 491.751V449.914C361.453 438.885 352.588 429.904 341.611 429.683L341.61 385.402C341.594 374.962 344.797 364.771 350.783 356.217L412.454 267.809C414.289 265.179 416.463 262.802 418.92 260.741L451.3 233.574C456.475 229.23 459.303 222.87 459.06 216.122ZM346.454 449.911V491.748C346.452 493.14 345.899 494.475 344.914 495.46C343.929 496.445 342.594 496.998 341.202 497H129.471C128.078 496.998 126.744 496.445 125.759 495.46C124.774 494.475 124.221 493.14 124.219 491.748V449.911C124.221 448.519 124.774 447.184 125.759 446.199C126.744 445.214 128.078 444.661 129.471 444.659H135.151L135.17 444.66L135.189 444.659H334.092L334.111 444.66L334.13 444.659H341.2C342.593 444.66 343.928 445.214 344.913 446.198C345.898 447.183 346.452 448.518 346.454 449.911Z" fill="black"/>
<path d="M166.425 475.183C169.314 472.294 169.314 467.611 166.425 464.722C163.536 461.834 158.853 461.834 155.964 464.722C153.075 467.611 153.075 472.294 155.964 475.183C158.853 478.072 163.536 478.072 166.425 475.183Z" fill="black"/>
<path d="M91.7109 159.455L68.8259 79.334C65.0639 67.558 74.7849 52.113 89.0979 52.46C98.0059 52.46 105.991 58.1 108.969 66.496L143.698 164.407C142.369 165.153 141.196 166.048 140.26 167.109C138.975 168.565 138.305 170.463 138.391 172.403C138.477 174.343 139.312 176.174 140.72 177.511C142.129 178.848 144.001 179.586 145.943 179.571C147.884 179.556 149.745 178.788 151.132 177.429C151.485 177.285 152.331 177.044 153.572 177.044C154.813 177.044 155.66 177.285 156.012 177.429C157.414 178.805 159.3 179.574 161.264 179.572C162.707 179.571 164.12 179.154 165.332 178.371C166.544 177.587 167.505 176.471 168.098 175.155C168.691 173.839 168.892 172.38 168.677 170.953C168.462 169.526 167.839 168.191 166.884 167.109C165.24 165.247 162.909 163.862 160.159 163.011L144.741 49.207C143.082 37.845 152.71 24.866 166.059 25.022C176.706 25.022 185.853 32.973 187.337 43.516L187.356 43.641L206.322 163.735C204.415 164.578 202.772 165.704 201.53 167.111C200.245 168.567 199.575 170.465 199.661 172.405C199.747 174.345 200.582 176.176 201.991 177.513C203.399 178.85 205.272 179.588 207.214 179.573C209.156 179.557 211.016 178.789 212.403 177.43C212.756 177.286 213.602 177.046 214.843 177.046C216.084 177.046 216.931 177.287 217.283 177.431C218.685 178.807 220.571 179.576 222.535 179.574C223.978 179.573 225.391 179.156 226.603 178.373C227.815 177.589 228.776 176.473 229.369 175.157C229.962 173.841 230.163 172.382 229.948 170.955C229.733 169.528 229.11 168.193 228.155 167.111C226.715 165.48 224.755 164.206 222.444 163.341L224.346 36.469C224.468 24.63 234.197 15 246.035 15C257.994 15 267.723 24.729 267.723 36.688L267.724 163.311C265.377 164.176 263.384 165.458 261.927 167.109C260.642 168.565 259.972 170.463 260.058 172.403C260.144 174.343 260.979 176.174 262.387 177.511C263.796 178.848 265.668 179.586 267.61 179.571C269.551 179.556 271.412 178.788 272.799 177.429C273.152 177.285 273.998 177.044 275.239 177.044C276.48 177.044 277.327 177.285 277.679 177.429C279.081 178.805 280.967 179.574 282.931 179.572C284.374 179.571 285.787 179.154 286.999 178.371C288.211 177.587 289.172 176.471 289.765 175.155C290.358 173.839 290.559 172.38 290.344 170.953C290.129 169.526 289.506 168.191 288.551 167.109C287.304 165.696 285.652 164.566 283.735 163.723L302.699 43.64L302.718 43.515C304.202 32.972 313.35 25.021 323.997 25.021C335.454 24.801 347.117 35.946 345.323 49.147L326.691 178.486C326.489 179.302 326.676 200.023 326.614 201.404C326.614 203.393 327.404 205.301 328.811 206.707C330.217 208.114 332.125 208.904 334.114 208.904C336.103 208.904 338.011 208.114 339.417 206.707C340.824 205.301 341.614 203.393 341.614 201.404V180.092L360.18 51.216C363.423 30.733 345.664 9.653 323.997 10.021C305.939 10.021 290.42 23.489 287.873 41.361L282.723 73.971V36.688C282.723 16.458 266.265 0 246.035 0C226.01 0 209.553 16.291 209.348 36.314L208.866 83.683L202.182 41.359C199.634 23.489 184.116 10.023 166.059 10.023C155.588 10.023 145.611 14.528 138.687 22.383C131.763 30.238 128.545 40.701 129.868 51.155L136.31 98.71L123.106 61.482C118.01 47.114 104.344 37.46 89.0989 37.46C66.6729 36.796 47.3429 60.721 54.4039 83.454L77.2889 163.575C77.5593 164.522 78.0136 165.407 78.6259 166.178C79.2381 166.95 79.9964 167.593 80.8573 168.071C81.7183 168.549 82.665 168.854 83.6435 168.966C84.622 169.078 85.613 168.997 86.5599 168.726C88.4723 168.18 90.0894 166.896 91.0553 165.157C92.0213 163.419 92.2571 161.367 91.7109 159.455Z" fill="black"/>
</g>
<defs>
<clipPath id="clip0_20_164">
<rect width="512" height="512" fill="white"/>
</clipPath>
</defs>
</svg>
